<?xml version="1.0" encoding="UTF-8"?>
<svg xmlns="http://www.w3.org/2000/svg" xmlns:xlink="http://www.w3.org/1999/xlink" width="24px" height="24px" viewBox="0 0 24 24" version="1.1">
<g id="surface1">
<path fill="currentColor" style="stroke:none;fill-rule:nonzero;" d="M 17.699219 0.117188 C 15.46875 0.539062 13.878906 2.34375 13.753906 4.59375 C 13.679688 5.875 14.183594 7.238281 15.046875 8.085938 C 15.285156 8.320312 15.328125 8.390625 15.226562 8.390625 C 15.113281 8.390625 14.101562 8.90625 13.707031 9.164062 C 13.484375 9.304688 13.292969 9.421875 13.273438 9.421875 C 13.257812 9.421875 13.152344 9.25 13.046875 9.03125 C 12.496094 7.960938 11.414062 7.054688 10.242188 6.6875 C 9.226562 6.371094 8.101562 6.40625 7.078125 6.792969 C 5.933594 7.222656 4.875 8.265625 4.398438 9.429688 C 3.871094 10.71875 3.929688 12.144531 4.554688 13.382812 C 4.800781 13.867188 4.960938 14.089844 5.304688 14.460938 L 5.582031 14.761719 L 5.414062 14.835938 C 5.316406 14.875 5.230469 14.90625 5.21875 14.90625 C 5.207031 14.90625 4.964844 15.023438 4.671875 15.167969 C 2.550781 16.234375 0.910156 18.089844 0.1875 20.242188 C -0.0859375 21.054688 -0.0429688 21.78125 0.3125 22.5 C 0.535156 22.9375 1.0625 23.488281 1.476562 23.703125 C 2.070312 24.015625 1.804688 24 6.765625 24 L 11.257812 24 L 11.441406 23.898438 C 11.539062 23.839844 11.679688 23.714844 11.75 23.609375 C 11.863281 23.453125 11.882812 23.375 11.882812 23.105469 C 11.882812 22.828125 11.863281 22.761719 11.742188 22.589844 C 11.667969 22.480469 11.507812 22.339844 11.394531 22.28125 L 11.1875 22.171875 L 6.917969 22.171875 C 2.855469 22.171875 2.640625 22.167969 2.457031 22.082031 C 2.222656 21.976562 2.078125 21.835938 1.964844 21.585938 C 1.855469 21.355469 1.851562 21.164062 1.949219 20.875 C 2.523438 19.164062 3.835938 17.679688 5.507812 16.851562 C 6.460938 16.382812 7.28125 16.152344 8.273438 16.085938 C 9.851562 15.976562 11.207031 16.320312 12.652344 17.199219 C 13.078125 17.457031 13.265625 17.511719 13.539062 17.460938 C 14.253906 17.335938 14.539062 16.414062 14.023438 15.898438 C 13.804688 15.683594 12.976562 15.191406 12.460938 14.96875 C 12.242188 14.878906 12.0625 14.792969 12.050781 14.785156 C 12.042969 14.773438 12.160156 14.632812 12.3125 14.46875 C 12.957031 13.800781 13.386719 12.910156 13.542969 11.921875 C 13.585938 11.664062 13.609375 11.609375 13.804688 11.429688 C 14.371094 10.902344 15.34375 10.328125 16.101562 10.058594 C 17.019531 9.734375 17.714844 9.632812 18.769531 9.671875 C 20.117188 9.71875 21.113281 10.023438 22.285156 10.742188 C 22.683594 10.992188 22.789062 11.039062 23.011719 11.054688 C 23.875 11.109375 24.324219 10.039062 23.691406 9.449219 C 23.484375 9.261719 22.855469 8.886719 22.285156 8.617188 C 22.003906 8.484375 21.765625 8.367188 21.753906 8.363281 C 21.746094 8.351562 21.863281 8.210938 22.015625 8.054688 C 22.609375 7.429688 22.976562 6.730469 23.183594 5.832031 C 23.316406 5.28125 23.304688 4.285156 23.164062 3.734375 C 22.730469 1.988281 21.414062 0.648438 19.691406 0.203125 C 19.117188 0.0507812 18.242188 0.0195312 17.699219 0.117188 Z M 19.117188 1.992188 C 20.742188 2.375 21.730469 3.941406 21.328125 5.503906 C 21.039062 6.648438 20.15625 7.476562 19.011719 7.683594 C 17.789062 7.90625 16.496094 7.257812 15.941406 6.136719 C 15.542969 5.328125 15.511719 4.566406 15.828125 3.75 C 16.339844 2.457031 17.792969 1.683594 19.117188 1.992188 Z M 9.445312 8.414062 C 10.496094 8.632812 11.421875 9.566406 11.648438 10.621094 C 11.96875 12.117188 11.070312 13.597656 9.585938 14.042969 C 9.203125 14.160156 8.421875 14.160156 8.039062 14.042969 C 6.71875 13.648438 5.835938 12.40625 5.925781 11.070312 C 6.023438 9.542969 7.269531 8.363281 8.789062 8.347656 C 8.972656 8.347656 9.265625 8.375 9.445312 8.414062 Z M 9.445312 8.414062 "/>
<path fill="currentColor"  style="stroke:none;fill-rule:nonzero;" d="M 19.261719 15.183594 C 19.054688 15.25 18.886719 15.382812 18.753906 15.582031 L 18.632812 15.773438 L 18.617188 17.210938 L 18.605469 18.652344 L 17.160156 18.664062 L 15.71875 18.679688 L 15.53125 18.804688 C 15.28125 18.96875 15.140625 19.203125 15.109375 19.507812 C 15.089844 19.71875 15.101562 19.796875 15.21875 20.015625 C 15.328125 20.222656 15.402344 20.296875 15.605469 20.398438 L 15.851562 20.53125 L 18.609375 20.53125 L 18.609375 23.277344 L 18.730469 23.523438 C 18.898438 23.859375 19.140625 24 19.546875 24 C 19.953125 24 20.195312 23.859375 20.363281 23.523438 L 20.484375 23.277344 L 20.484375 20.53125 L 23.242188 20.53125 L 23.488281 20.398438 C 23.691406 20.296875 23.765625 20.222656 23.875 20.015625 C 23.992188 19.796875 24.003906 19.71875 23.980469 19.503906 C 23.953125 19.179688 23.769531 18.914062 23.488281 18.765625 C 23.289062 18.65625 23.257812 18.65625 21.886719 18.65625 L 20.488281 18.65625 L 20.476562 17.210938 C 20.460938 15.792969 20.460938 15.773438 20.347656 15.59375 C 20.1875 15.335938 19.9375 15.1875 19.636719 15.164062 C 19.496094 15.148438 19.328125 15.160156 19.261719 15.183594 Z M 19.261719 15.183594 "/>
</g>
</svg>
