<svg width="16" height="17" viewBox="0 0 16 17" fill="none" xmlns="http://www.w3.org/2000/svg">
<path fill-rule="evenodd" clip-rule="evenodd" d="M8.5683 1.81599C9.14929 1.105 10.1463 0.559 10.9993 0.5C11.1423 1.47199 10.7473 2.42399 10.2253 3.09698C9.66729 3.81998 8.7043 4.37898 7.77231 4.34998C7.60231 3.41898 8.0383 2.46099 8.5683 1.81599ZM11.3133 4.245C12.4003 4.245 13.5513 4.84099 14.3703 5.86799C11.6853 7.34898 12.1203 11.207 14.8333 12.2399C14.4603 13.0719 14.2813 13.4429 13.8003 14.1799C13.1293 15.2079 12.1843 16.4889 11.0113 16.4979C10.5291 16.503 10.2128 16.3571 9.87173 16.1997C9.47641 16.0173 9.04785 15.8196 8.28933 15.8239C7.53498 15.8277 7.09956 16.0229 6.69884 16.2026C6.34895 16.3595 6.02552 16.5046 5.53935 16.4999C4.36735 16.4899 3.47136 15.3339 2.80036 14.3059C0.925374 11.433 0.727376 8.05997 1.88437 6.26598C2.70736 4.99199 4.00536 4.247 5.22435 4.247C5.87403 4.247 6.39765 4.43473 6.89663 4.61364C7.35077 4.77647 7.78451 4.93199 8.27433 4.93199C8.72757 4.93199 9.10021 4.79001 9.50668 4.63514C9.99433 4.44935 10.5307 4.245 11.3133 4.245Z" fill="black"/>
</svg>
