<?xml version="1.0" encoding="UTF-8"?>
<svg xmlns="http://www.w3.org/2000/svg" xmlns:xlink="http://www.w3.org/1999/xlink" width="24px" height="24px" viewBox="0 0 24 24" version="1.1">
<g id="surface1">
<path fill="currentColor" style="stroke:none;fill-rule:nonzero;" d="M 3.445312 0.0664062 C 3.273438 0.140625 3.117188 0.308594 3.050781 0.484375 C 2.980469 0.660156 2.980469 21.183594 3.046875 21.421875 C 3.078125 21.546875 3.375 21.867188 4.273438 22.765625 C 5.878906 24.359375 5.726562 24.34375 7.007812 23.0625 L 7.847656 22.21875 L 8.71875 23.082031 C 9.960938 24.3125 9.914062 24.3125 11.171875 23.070312 L 12 22.246094 L 12.835938 23.070312 C 14.085938 24.3125 14.039062 24.3125 15.28125 23.082031 L 16.152344 22.21875 L 16.992188 23.0625 C 18.273438 24.34375 18.121094 24.359375 19.726562 22.765625 C 20.65625 21.839844 20.921875 21.546875 20.953125 21.417969 C 20.984375 21.304688 20.996094 17.527344 20.992188 10.859375 L 20.976562 0.472656 L 20.878906 0.347656 C 20.828125 0.277344 20.722656 0.171875 20.652344 0.121094 L 20.527344 0.0234375 L 12.054688 0.015625 C 5.066406 0.00390625 3.5625 0.015625 3.445312 0.0664062 Z M 19.59375 11.171875 L 19.59375 20.929688 L 18.210938 22.3125 L 17.390625 21.488281 C 16.941406 21.039062 16.515625 20.632812 16.445312 20.597656 C 16.273438 20.507812 16.015625 20.511719 15.828125 20.605469 C 15.746094 20.648438 15.3125 21.042969 14.867188 21.484375 L 14.0625 22.285156 L 13.203125 21.4375 C 12.488281 20.71875 12.324219 20.582031 12.179688 20.554688 C 11.78125 20.480469 11.714844 20.523438 10.796875 21.4375 L 9.9375 22.285156 L 9.132812 21.484375 C 8.6875 21.042969 8.253906 20.648438 8.171875 20.605469 C 7.984375 20.511719 7.726562 20.507812 7.554688 20.597656 C 7.484375 20.632812 7.058594 21.039062 6.609375 21.488281 L 5.789062 22.3125 L 4.40625 20.929688 L 4.40625 1.40625 L 19.59375 1.40625 Z M 19.59375 11.171875 "/>
<path fill="currentColor" style="stroke:none;fill-rule:nonzero;" d="M 11.792969 3.796875 C 11.433594 3.910156 11.296875 4.191406 11.296875 4.820312 L 11.296875 5.277344 L 11.023438 5.335938 C 9.921875 5.558594 9.144531 6.679688 9.3125 7.785156 C 9.460938 8.699219 10.15625 9.445312 11.046875 9.632812 C 11.242188 9.675781 11.640625 9.703125 12.042969 9.703125 C 12.632812 9.703125 12.734375 9.710938 12.886719 9.800781 C 13.335938 10.054688 13.429688 10.617188 13.085938 11.023438 C 12.871094 11.277344 12.773438 11.296875 11.503906 11.296875 C 10.222656 11.296875 10.125 11.316406 9.921875 11.597656 C 9.777344 11.796875 9.777344 12.203125 9.921875 12.402344 C 10.09375 12.636719 10.285156 12.703125 10.824219 12.703125 L 11.296875 12.703125 L 11.296875 13.175781 C 11.296875 13.714844 11.363281 13.90625 11.597656 14.078125 C 11.796875 14.222656 12.203125 14.222656 12.402344 14.078125 C 12.636719 13.90625 12.703125 13.714844 12.703125 13.175781 L 12.703125 12.703125 L 12.835938 12.679688 C 13.703125 12.496094 14.28125 12.015625 14.570312 11.242188 C 15.019531 10.039062 14.3125 8.695312 13.054688 8.363281 C 12.910156 8.320312 12.546875 8.296875 12.117188 8.296875 C 11.386719 8.292969 11.152344 8.25 10.960938 8.078125 C 10.828125 7.964844 10.6875 7.648438 10.6875 7.476562 C 10.6875 7.238281 10.851562 6.957031 11.066406 6.8125 L 11.269531 6.679688 L 12.515625 6.65625 C 13.613281 6.636719 13.777344 6.625 13.890625 6.546875 C 14.199219 6.347656 14.296875 5.914062 14.101562 5.625 C 13.894531 5.324219 13.789062 5.28125 13.222656 5.257812 L 12.710938 5.242188 L 12.695312 4.730469 C 12.683594 4.308594 12.664062 4.203125 12.582031 4.097656 C 12.378906 3.824219 12.078125 3.707031 11.792969 3.796875 Z M 11.792969 3.796875 "/>
<path fill="currentColor" style="stroke:none;fill-rule:nonzero;" d="M 8.085938 16.589844 C 7.730469 16.679688 7.570312 16.890625 7.570312 17.28125 C 7.570312 17.558594 7.578125 17.585938 7.75 17.75 L 7.921875 17.929688 L 16.070312 17.929688 L 16.195312 17.8125 C 16.390625 17.625 16.46875 17.445312 16.445312 17.203125 C 16.421875 16.960938 16.3125 16.785156 16.101562 16.65625 C 15.96875 16.574219 15.753906 16.570312 12.09375 16.5625 C 9.964844 16.554688 8.164062 16.570312 8.085938 16.589844 Z M 8.085938 16.589844 "/>
</g>
</svg>
