<?xml version="1.0" encoding="UTF-8"?>
<svg xmlns="http://www.w3.org/2000/svg" xmlns:xlink="http://www.w3.org/1999/xlink" width="24px" height="24px" viewBox="0 0 24 24" version="1.1">
<g id="surface1">
<path style="stroke:none;fill-rule:nonzero;" fill="currentColor" d="M 3.675781 3.089844 C 3.566406 3.140625 3.441406 3.242188 3.382812 3.332031 C 3.332031 3.421875 2.835938 4.519531 2.277344 5.769531 L 1.265625 8.054688 L 1.265625 20.46875 L 1.367188 20.625 C 1.429688 20.710938 1.539062 20.828125 1.609375 20.878906 L 1.738281 20.976562 L 22.261719 20.976562 L 22.390625 20.878906 C 22.460938 20.828125 22.570312 20.710938 22.625 20.625 L 22.734375 20.46875 L 22.734375 8.039062 L 21.707031 5.726562 C 21.140625 4.457031 20.644531 3.367188 20.601562 3.300781 C 20.558594 3.234375 20.4375 3.140625 20.328125 3.089844 C 20.136719 3.003906 19.878906 3 12 3 C 4.171875 3 3.859375 3.003906 3.675781 3.089844 Z M 20.164062 5.976562 C 20.523438 6.773438 20.8125 7.445312 20.8125 7.460938 C 20.8125 7.480469 16.847656 7.5 12 7.5 C 7.152344 7.5 3.1875 7.484375 3.1875 7.460938 C 3.1875 7.445312 3.476562 6.769531 3.828125 5.96875 L 4.476562 4.5 L 12 4.515625 L 19.519531 4.523438 Z M 8.765625 11.738281 L 8.765625 14.46875 L 8.875 14.625 C 9.023438 14.851562 9.195312 14.960938 9.425781 14.984375 C 9.605469 15.003906 9.796875 14.945312 10.820312 14.535156 L 12.003906 14.0625 L 13.140625 14.523438 C 14.0625 14.890625 14.320312 14.976562 14.515625 14.976562 C 14.789062 14.976562 14.953125 14.882812 15.132812 14.625 L 15.234375 14.46875 L 15.234375 9 L 21.234375 9 L 21.234375 19.5 L 2.765625 19.5 L 2.765625 9 L 8.765625 9 Z M 13.734375 11.066406 C 13.734375 12.703125 13.71875 13.128906 13.679688 13.109375 C 13.644531 13.097656 13.292969 12.960938 12.898438 12.800781 C 12.445312 12.617188 12.117188 12.515625 12 12.515625 C 11.882812 12.515625 11.554688 12.617188 11.101562 12.800781 C 10.707031 12.960938 10.355469 13.097656 10.328125 13.109375 C 10.28125 13.128906 10.265625 12.703125 10.265625 11.066406 L 10.265625 9 L 13.734375 9 Z M 13.734375 11.066406 "/>
</g>
</svg>
