<?xml version="1.0" encoding="UTF-8"?>
<svg xmlns="http://www.w3.org/2000/svg" xmlns:xlink="http://www.w3.org/1999/xlink" width="24px" height="24px" viewBox="0 0 24 24" version="1.1">
<g id="surface1">
<path fill="currentColor"  style="stroke:none;fill-rule:nonzero;" d="M 1.835938 0.0976562 C 1.707031 0.164062 1.609375 0.257812 1.546875 0.378906 C 1.453125 0.558594 1.453125 0.734375 1.453125 11.578125 L 1.453125 22.59375 L 1.007812 22.59375 C 0.652344 22.59375 0.519531 22.613281 0.375 22.6875 C 0.164062 22.796875 0 23.0625 0 23.296875 C 0 23.53125 0.164062 23.796875 0.375 23.90625 C 0.558594 24 0.625 24 12 24 C 23.375 24 23.441406 24 23.625 23.90625 C 23.835938 23.796875 24 23.53125 24 23.296875 C 24 23.0625 23.835938 22.796875 23.625 22.6875 C 23.480469 22.613281 23.347656 22.59375 22.992188 22.59375 L 22.546875 22.59375 L 22.546875 16.570312 C 22.546875 10.035156 22.5625 10.375 22.292969 10.125 C 22.195312 10.035156 21.167969 9.675781 18.148438 8.667969 L 14.132812 7.328125 L 14.109375 6.015625 C 14.085938 4.710938 14.085938 4.703125 13.96875 4.53125 C 13.898438 4.429688 13.765625 4.328125 13.640625 4.269531 C 13.015625 4.003906 2.351562 0.03125 2.207031 0.015625 C 2.09375 0 1.972656 0.0273438 1.835938 0.0976562 Z M 7.84375 3.585938 L 12.703125 5.410156 L 12.703125 22.59375 L 11.296875 22.59375 L 11.296875 20.765625 C 11.296875 19.023438 11.292969 18.921875 11.203125 18.75 C 11.140625 18.628906 11.042969 18.53125 10.921875 18.46875 C 10.742188 18.378906 10.648438 18.375 7.78125 18.375 C 4.914062 18.375 4.820312 18.378906 4.640625 18.46875 C 4.519531 18.53125 4.421875 18.628906 4.359375 18.75 C 4.269531 18.921875 4.265625 19.023438 4.265625 20.765625 L 4.265625 22.59375 L 2.859375 22.59375 L 2.859375 12.160156 C 2.859375 3.828125 2.875 1.730469 2.921875 1.742188 C 2.949219 1.757812 5.164062 2.582031 7.84375 3.585938 Z M 17.695312 10 L 21.117188 11.140625 L 21.132812 16.867188 L 21.140625 22.59375 L 19.734375 22.59375 L 19.734375 20.765625 C 19.734375 19.023438 19.730469 18.921875 19.640625 18.75 C 19.578125 18.628906 19.480469 18.53125 19.359375 18.46875 C 19.1875 18.378906 19.085938 18.375 17.625 18.375 C 16.164062 18.375 16.0625 18.378906 15.890625 18.46875 C 15.769531 18.53125 15.671875 18.628906 15.609375 18.75 C 15.519531 18.921875 15.515625 19.023438 15.515625 20.765625 L 15.515625 22.59375 L 14.109375 22.59375 L 14.109375 15.699219 C 14.109375 9.15625 14.113281 8.808594 14.195312 8.832031 C 14.234375 8.84375 15.816406 9.371094 17.695312 10 Z M 7.078125 21.1875 L 7.078125 22.59375 L 5.671875 22.59375 L 5.671875 19.78125 L 7.078125 19.78125 Z M 9.890625 21.1875 L 9.890625 22.59375 L 8.484375 22.59375 L 8.484375 19.78125 L 9.890625 19.78125 Z M 18.328125 21.1875 L 18.328125 22.59375 L 16.921875 22.59375 L 16.921875 19.78125 L 18.328125 19.78125 Z M 18.328125 21.1875 "/>
<path fill="currentColor"  style="stroke:none;fill-rule:nonzero;" d="M 4.632812 7.222656 C 4.429688 7.328125 4.265625 7.601562 4.265625 7.828125 C 4.265625 8.0625 4.429688 8.328125 4.640625 8.4375 C 4.804688 8.523438 4.917969 8.53125 5.671875 8.53125 C 6.425781 8.53125 6.539062 8.523438 6.703125 8.4375 C 6.914062 8.328125 7.078125 8.0625 7.078125 7.828125 C 7.078125 7.59375 6.914062 7.328125 6.703125 7.21875 C 6.539062 7.132812 6.429688 7.125 5.664062 7.125 C 4.902344 7.128906 4.785156 7.140625 4.632812 7.222656 Z M 4.632812 7.222656 "/>
<path fill="currentColor"  style="stroke:none;fill-rule:nonzero;" d="M 8.851562 7.222656 C 8.648438 7.328125 8.484375 7.601562 8.484375 7.828125 C 8.484375 8.0625 8.648438 8.328125 8.859375 8.4375 C 9.023438 8.523438 9.136719 8.53125 9.890625 8.53125 C 10.644531 8.53125 10.757812 8.523438 10.921875 8.4375 C 11.132812 8.328125 11.296875 8.0625 11.296875 7.828125 C 11.296875 7.59375 11.132812 7.328125 10.921875 7.21875 C 10.757812 7.132812 10.648438 7.125 9.882812 7.125 C 9.121094 7.128906 9.003906 7.140625 8.851562 7.222656 Z M 8.851562 7.222656 "/>
<path fill="currentColor"  style="stroke:none;fill-rule:nonzero;" d="M 4.632812 10.035156 C 4.429688 10.140625 4.265625 10.414062 4.265625 10.640625 C 4.265625 10.875 4.429688 11.140625 4.640625 11.25 C 4.804688 11.335938 4.917969 11.34375 5.671875 11.34375 C 6.425781 11.34375 6.539062 11.335938 6.703125 11.25 C 6.914062 11.140625 7.078125 10.875 7.078125 10.640625 C 7.078125 10.40625 6.914062 10.140625 6.703125 10.03125 C 6.539062 9.945312 6.429688 9.9375 5.664062 9.9375 C 4.902344 9.941406 4.785156 9.953125 4.632812 10.035156 Z M 4.632812 10.035156 "/>
<path fill="currentColor"  style="stroke:none;fill-rule:nonzero;" d="M 8.851562 10.035156 C 8.648438 10.140625 8.484375 10.414062 8.484375 10.640625 C 8.484375 10.875 8.648438 11.140625 8.859375 11.25 C 9.023438 11.335938 9.136719 11.34375 9.890625 11.34375 C 10.644531 11.34375 10.757812 11.335938 10.921875 11.25 C 11.132812 11.140625 11.296875 10.875 11.296875 10.640625 C 11.296875 10.40625 11.132812 10.140625 10.921875 10.03125 C 10.757812 9.945312 10.648438 9.9375 9.882812 9.9375 C 9.121094 9.941406 9.003906 9.953125 8.851562 10.035156 Z M 8.851562 10.035156 "/>
<path fill="currentColor"  style="stroke:none;fill-rule:nonzero;" d="M 4.632812 12.847656 C 4.429688 12.953125 4.265625 13.226562 4.265625 13.453125 C 4.265625 13.6875 4.429688 13.953125 4.640625 14.0625 C 4.804688 14.148438 4.917969 14.15625 5.671875 14.15625 C 6.425781 14.15625 6.539062 14.148438 6.703125 14.0625 C 6.914062 13.953125 7.078125 13.6875 7.078125 13.453125 C 7.078125 13.21875 6.914062 12.953125 6.703125 12.84375 C 6.539062 12.757812 6.429688 12.75 5.664062 12.75 C 4.902344 12.753906 4.785156 12.765625 4.632812 12.847656 Z M 4.632812 12.847656 "/>
<path fill="currentColor"  style="stroke:none;fill-rule:nonzero;" d="M 8.851562 12.847656 C 8.648438 12.953125 8.484375 13.226562 8.484375 13.453125 C 8.484375 13.6875 8.648438 13.953125 8.859375 14.0625 C 9.023438 14.148438 9.136719 14.15625 9.890625 14.15625 C 10.644531 14.15625 10.757812 14.148438 10.921875 14.0625 C 11.132812 13.953125 11.296875 13.6875 11.296875 13.453125 C 11.296875 13.21875 11.132812 12.953125 10.921875 12.84375 C 10.757812 12.757812 10.648438 12.75 9.882812 12.75 C 9.121094 12.753906 9.003906 12.765625 8.851562 12.847656 Z M 8.851562 12.847656 "/>
<path fill="currentColor"  style="stroke:none;fill-rule:nonzero;" d="M 4.632812 15.660156 C 4.429688 15.765625 4.265625 16.039062 4.265625 16.265625 C 4.265625 16.5 4.429688 16.765625 4.640625 16.875 C 4.804688 16.960938 4.917969 16.96875 5.671875 16.96875 C 6.425781 16.96875 6.539062 16.960938 6.703125 16.875 C 6.914062 16.765625 7.078125 16.5 7.078125 16.265625 C 7.078125 16.03125 6.914062 15.765625 6.703125 15.65625 C 6.539062 15.570312 6.429688 15.5625 5.664062 15.5625 C 4.902344 15.566406 4.785156 15.578125 4.632812 15.660156 Z M 4.632812 15.660156 "/>
<path fill="currentColor"  style="stroke:none;fill-rule:nonzero;" d="M 8.851562 15.660156 C 8.648438 15.765625 8.484375 16.039062 8.484375 16.265625 C 8.484375 16.5 8.648438 16.765625 8.859375 16.875 C 9.023438 16.960938 9.136719 16.96875 9.890625 16.96875 C 10.644531 16.96875 10.757812 16.960938 10.921875 16.875 C 11.132812 16.765625 11.296875 16.5 11.296875 16.265625 C 11.296875 16.03125 11.132812 15.765625 10.921875 15.65625 C 10.757812 15.570312 10.648438 15.5625 9.882812 15.5625 C 9.121094 15.566406 9.003906 15.578125 8.851562 15.660156 Z M 8.851562 15.660156 "/>
<path fill="currentColor"  style="stroke:none;fill-rule:nonzero;" d="M 15.882812 12.847656 C 15.679688 12.953125 15.515625 13.226562 15.515625 13.453125 C 15.515625 13.6875 15.679688 13.953125 15.890625 14.0625 C 16.0625 14.152344 16.164062 14.15625 17.625 14.15625 C 19.085938 14.15625 19.1875 14.152344 19.359375 14.0625 C 19.570312 13.953125 19.734375 13.6875 19.734375 13.453125 C 19.734375 13.21875 19.570312 12.953125 19.359375 12.84375 C 19.1875 12.753906 19.085938 12.75 17.617188 12.75 C 16.152344 12.753906 16.046875 12.757812 15.882812 12.847656 Z M 15.882812 12.847656 "/>
<path fill="currentColor"  style="stroke:none;fill-rule:nonzero;" d="M 15.882812 15.660156 C 15.679688 15.765625 15.515625 16.039062 15.515625 16.265625 C 15.515625 16.5 15.679688 16.765625 15.890625 16.875 C 16.0625 16.964844 16.164062 16.96875 17.625 16.96875 C 19.085938 16.96875 19.1875 16.964844 19.359375 16.875 C 19.570312 16.765625 19.734375 16.5 19.734375 16.265625 C 19.734375 16.03125 19.570312 15.765625 19.359375 15.65625 C 19.1875 15.566406 19.085938 15.5625 17.617188 15.5625 C 16.152344 15.566406 16.046875 15.570312 15.882812 15.660156 Z M 15.882812 15.660156 "/>
</g>
</svg>
