<?xml version="1.0" encoding="UTF-8"?>
<svg xmlns="http://www.w3.org/2000/svg" xmlns:xlink="http://www.w3.org/1999/xlink" width="24px" height="24px" viewBox="0 0 24 24" version="1.1">
<g id="surface1">
<path fill="currentColor" style="stroke:none;fill-rule:nonzero;" d="M 3.023438 3.800781 C 2.898438 3.828125 2.59375 3.941406 2.347656 4.058594 C 1.742188 4.355469 1.355469 4.742188 1.058594 5.347656 C 0.9375 5.605469 0.828125 5.914062 0.796875 6.09375 C 0.765625 6.304688 0.75 8.164062 0.757812 12.1875 L 0.773438 17.976562 L 0.875 18.25 C 1.25 19.222656 1.851562 19.808594 2.8125 20.136719 C 3.0625 20.222656 3.394531 20.226562 11.976562 20.226562 C 21.683594 20.226562 21.046875 20.246094 21.632812 19.960938 C 22.367188 19.597656 22.847656 19.039062 23.136719 18.1875 C 23.222656 17.9375 23.226562 17.691406 23.226562 12 C 23.226562 5.367188 23.253906 5.949219 22.894531 5.25 C 22.574219 4.640625 22.003906 4.148438 21.3125 3.894531 L 20.976562 3.773438 L 12.117188 3.769531 C 6.746094 3.765625 3.164062 3.777344 3.023438 3.800781 Z M 20.957031 5.371094 C 21.226562 5.5 21.496094 5.769531 21.628906 6.046875 L 21.726562 6.257812 L 21.726562 17.742188 L 21.628906 17.953125 C 21.5 18.21875 21.21875 18.5 20.953125 18.628906 L 20.742188 18.726562 L 3.257812 18.726562 L 3.046875 18.628906 C 2.78125 18.5 2.5 18.21875 2.371094 17.953125 C 2.273438 17.742188 2.273438 17.734375 2.257812 12.097656 C 2.25 7.214844 2.257812 6.417969 2.320312 6.210938 C 2.4375 5.804688 2.75 5.480469 3.160156 5.335938 C 3.382812 5.257812 3.886719 5.253906 12.070312 5.265625 L 20.742188 5.273438 Z M 20.957031 5.371094 "/>
<path fill="currentColor" style="stroke:none;fill-rule:nonzero;" d="M 4.195312 7.566406 C 3.882812 7.703125 3.703125 8.0625 3.769531 8.414062 C 3.8125 8.632812 4.046875 8.890625 4.257812 8.953125 C 4.378906 8.992188 6.8125 9 12.101562 8.992188 C 19.765625 8.976562 19.777344 8.976562 19.902344 8.878906 C 20.152344 8.695312 20.226562 8.546875 20.226562 8.25 C 20.226562 7.953125 20.152344 7.804688 19.902344 7.621094 C 19.777344 7.523438 19.773438 7.523438 12.054688 7.515625 C 5.710938 7.503906 4.3125 7.515625 4.195312 7.566406 Z M 4.195312 7.566406 "/>
<path fill="currentColor" style="stroke:none;fill-rule:nonzero;" d="M 4.195312 15.816406 C 3.882812 15.953125 3.703125 16.3125 3.769531 16.664062 C 3.8125 16.882812 4.046875 17.140625 4.257812 17.203125 C 4.367188 17.234375 5.007812 17.25 6.101562 17.242188 C 7.707031 17.226562 7.78125 17.222656 7.902344 17.128906 C 8.152344 16.945312 8.226562 16.796875 8.226562 16.5 C 8.226562 16.203125 8.152344 16.054688 7.902344 15.871094 C 7.78125 15.777344 7.710938 15.773438 6.054688 15.765625 C 4.695312 15.753906 4.308594 15.765625 4.195312 15.816406 Z M 4.195312 15.816406 "/>
</g>
</svg>
