<?xml version="1.0" encoding="UTF-8"?>
<svg xmlns="http://www.w3.org/2000/svg" xmlns:xlink="http://www.w3.org/1999/xlink" width="24px" height="24px" viewBox="0 0 24 24" version="1.1">
<g id="surface1">
<path fill="currentColor" style="stroke:none;fill-rule:nonzero;" d="M 9.308594 2.953125 C 7.167969 3.289062 5.480469 4.914062 5.082031 7.011719 C 4.96875 7.617188 5.011719 8.582031 5.171875 9.203125 C 5.375 9.976562 5.851562 10.871094 6.355469 11.4375 C 6.476562 11.570312 6.5625 11.6875 6.546875 11.703125 C 6.535156 11.71875 6.359375 11.796875 6.164062 11.882812 C 3.863281 12.886719 2.023438 15.046875 1.335938 17.5625 C 1.054688 18.589844 0.921875 19.871094 1.050781 20.316406 C 1.140625 20.609375 1.390625 20.875 1.671875 20.949219 C 1.789062 20.980469 2.9375 21 5.042969 21 L 8.230469 21 L 8.488281 20.867188 C 8.699219 20.765625 8.765625 20.699219 8.875 20.488281 C 9.078125 20.078125 9.027344 19.636719 8.734375 19.308594 C 8.441406 18.984375 8.421875 18.984375 5.59375 18.984375 L 3.09375 18.984375 L 3.117188 18.875 C 3.261719 18.203125 3.355469 17.875 3.515625 17.464844 C 4.046875 16.117188 5.109375 14.84375 6.359375 14.066406 C 7.492188 13.367188 8.5 13.074219 10.054688 12.988281 C 11.007812 12.9375 11.550781 12.8125 12.214844 12.496094 C 13.925781 11.6875 14.996094 10.097656 15.078125 8.222656 C 15.140625 6.976562 14.785156 5.859375 14.011719 4.828125 C 13.359375 3.964844 12.355469 3.308594 11.273438 3.042969 C 10.84375 2.933594 9.753906 2.882812 9.308594 2.953125 Z M 10.734375 5.089844 C 11.28125 5.21875 11.699219 5.457031 12.121094 5.878906 C 12.546875 6.304688 12.78125 6.722656 12.917969 7.289062 C 13.023438 7.730469 12.988281 8.527344 12.847656 8.953125 C 12.253906 10.808594 9.988281 11.585938 8.335938 10.503906 C 7.191406 9.757812 6.722656 8.328125 7.175781 6.96875 C 7.476562 6.078125 8.265625 5.351562 9.195312 5.109375 C 9.617188 5 10.3125 4.988281 10.734375 5.089844 Z M 10.734375 5.089844 "/>
<path fill="currentColor" style="stroke:none;fill-rule:nonzero;" d="M 19.171875 9.054688 C 19.039062 9.089844 18.304688 9.804688 15.710938 12.390625 C 13.398438 14.699219 12.382812 15.742188 12.308594 15.890625 C 12.25 16.007812 11.910156 16.972656 11.558594 18.039062 C 10.859375 20.140625 10.859375 20.125 11.078125 20.507812 C 11.210938 20.75 11.492188 20.9375 11.820312 21.007812 L 12.089844 21.066406 L 13.90625 20.460938 C 14.90625 20.132812 15.851562 19.804688 16.007812 19.734375 C 16.261719 19.617188 16.613281 19.28125 19.597656 16.285156 C 22.765625 13.101562 22.914062 12.953125 22.964844 12.730469 C 23.023438 12.476562 23 12.296875 22.875 12.046875 C 22.828125 11.957031 22.15625 11.257812 21.390625 10.492188 C 20.226562 9.335938 19.960938 9.09375 19.804688 9.050781 C 19.585938 8.992188 19.398438 8.992188 19.171875 9.054688 Z M 20.0625 11.976562 L 20.601562 12.515625 L 15.226562 17.890625 L 14.441406 18.136719 C 14.015625 18.265625 13.648438 18.375 13.636719 18.375 C 13.617188 18.375 13.714844 18.023438 13.851562 17.597656 L 14.09375 16.820312 L 16.785156 14.128906 C 18.265625 12.648438 19.484375 11.4375 19.5 11.4375 C 19.515625 11.4375 19.765625 11.679688 20.0625 11.976562 Z M 20.0625 11.976562 "/>
</g>
</svg>
