<svg width="50" height="49" viewBox="0 0 50 49" fill="none" xmlns="http://www.w3.org/2000/svg">
<path d="M36.8418 48.8203H28.6898L24.9698 47.591L21.2805 48.8203H13.0978C6.37512 48.8203 0.925781 43.371 0.925781 36.6483V12.9043C0.925781 6.18167 6.37512 0.732327 13.0978 0.732327H36.8418C43.5631 0.732327 49.0138 6.18167 49.0138 12.9043V36.6483C49.0138 43.371 43.5631 48.8203 36.8418 48.8203Z" fill="#3870C0"/>
<path d="M21.2569 19.543V24.7763H15.2275V31.6417H21.2569V48.8203H28.6796V31.6417H34.2142L35.2675 24.7763H28.6796V20.3216C28.6796 18.443 29.5995 16.6123 32.5502 16.6123H35.5449V10.767C35.5449 10.767 32.8275 10.303 30.2289 10.303C24.8035 10.303 21.2569 13.591 21.2569 19.543Z" fill="white"/>
</svg>
