<svg width="17" height="16" viewBox="0 0 17 16" fill="none" xmlns="http://www.w3.org/2000/svg">
<mask id="mask0_1388_2786" style="mask-type:alpha" maskUnits="userSpaceOnUse" x="0" y="0" width="17" height="16">
<path fill-rule="evenodd" clip-rule="evenodd" d="M16.314 6.54545H8.68605V9.63636H13.0767C12.6674 11.6 10.9558 12.7273 8.68605 12.7273C6.00698 12.7273 3.84884 10.6182 3.84884 8C3.84884 5.38182 6.00698 3.27273 8.68605 3.27273C9.83953 3.27273 10.8814 3.67273 11.7 4.32727L14.0814 2C12.6302 0.763636 10.7698 0 8.68605 0C4.14651 0 0.5 3.56364 0.5 8C0.5 12.4364 4.14651 16 8.68605 16C12.7791 16 16.5 13.0909 16.5 8C16.5 7.52727 16.4256 7.01818 16.314 6.54545Z" fill="white"/>
</mask>
<g mask="url(#mask0_1388_2786)">
<path d="M-0.244171 12.7273V3.27273L6.08141 8L-0.244171 12.7273Z" fill="#FBBC05"/>
</g>
<mask id="mask1_1388_2786" style="mask-type:alpha" maskUnits="userSpaceOnUse" x="0" y="0" width="17" height="16">
<path fill-rule="evenodd" clip-rule="evenodd" d="M16.314 6.54545H8.68605V9.63636H13.0767C12.6674 11.6 10.9558 12.7273 8.68605 12.7273C6.00698 12.7273 3.84884 10.6182 3.84884 8C3.84884 5.38182 6.00698 3.27273 8.68605 3.27273C9.83953 3.27273 10.8814 3.67273 11.7 4.32727L14.0814 2C12.6302 0.763636 10.7698 0 8.68605 0C4.14651 0 0.5 3.56364 0.5 8C0.5 12.4364 4.14651 16 8.68605 16C12.7791 16 16.5 13.0909 16.5 8C16.5 7.52727 16.4256 7.01818 16.314 6.54545Z" fill="white"/>
</mask>
<g mask="url(#mask1_1388_2786)">
<path d="M-0.244171 3.27273L6.08141 8L8.68606 5.78182L17.6163 4.36364V-0.727272H-0.244171V3.27273Z" fill="#EA4335"/>
</g>
<mask id="mask2_1388_2786" style="mask-type:alpha" maskUnits="userSpaceOnUse" x="0" y="0" width="17" height="16">
<path fill-rule="evenodd" clip-rule="evenodd" d="M16.314 6.54545H8.68605V9.63636H13.0767C12.6674 11.6 10.9558 12.7273 8.68605 12.7273C6.00698 12.7273 3.84884 10.6182 3.84884 8C3.84884 5.38182 6.00698 3.27273 8.68605 3.27273C9.83953 3.27273 10.8814 3.67273 11.7 4.32727L14.0814 2C12.6302 0.763636 10.7698 0 8.68605 0C4.14651 0 0.5 3.56364 0.5 8C0.5 12.4364 4.14651 16 8.68605 16C12.7791 16 16.5 13.0909 16.5 8C16.5 7.52727 16.4256 7.01818 16.314 6.54545Z" fill="white"/>
</mask>
<g mask="url(#mask2_1388_2786)">
<path d="M-0.244171 12.7273L10.9186 4.36364L13.8582 4.72727L17.6163 -0.727272V16.7273H-0.244171V12.7273Z" fill="#34A853"/>
</g>
<mask id="mask3_1388_2786" style="mask-type:alpha" maskUnits="userSpaceOnUse" x="0" y="0" width="17" height="16">
<path fill-rule="evenodd" clip-rule="evenodd" d="M16.314 6.54545H8.68605V9.63636H13.0767C12.6674 11.6 10.9558 12.7273 8.68605 12.7273C6.00698 12.7273 3.84884 10.6182 3.84884 8C3.84884 5.38182 6.00698 3.27273 8.68605 3.27273C9.83953 3.27273 10.8814 3.67273 11.7 4.32727L14.0814 2C12.6302 0.763636 10.7698 0 8.68605 0C4.14651 0 0.5 3.56364 0.5 8C0.5 12.4364 4.14651 16 8.68605 16C12.7791 16 16.5 13.0909 16.5 8C16.5 7.52727 16.4256 7.01818 16.314 6.54545Z" fill="white"/>
</mask>
<g mask="url(#mask3_1388_2786)">
<path d="M17.6163 16.7273L6.08139 8L4.59302 6.90909L17.6163 3.27273V16.7273Z" fill="#4285F4"/>
</g>
</svg>
