<?xml version="1.0" encoding="UTF-8"?>
<svg xmlns="http://www.w3.org/2000/svg" xmlns:xlink="http://www.w3.org/1999/xlink" width="24px" height="24px" viewBox="0 0 24 24" version="1.1">
<g id="surface1">
<path fill="currentColor" style=" stroke:none;fill-rule:nonzero;" d="M 4.484375 0.164062 C 4.261719 0.238281 4.097656 0.390625 3.980469 0.617188 C 3.894531 0.789062 3.890625 1.023438 3.890625 8.742188 L 3.890625 16.6875 L 2.3125 16.6875 C 0.546875 16.6875 0.484375 16.703125 0.21875 17.011719 C 0.00390625 17.269531 -0.0078125 17.398438 0.015625 18.960938 C 0.03125 20.511719 0.0429688 20.578125 0.308594 21.296875 C 0.789062 22.554688 2.113281 23.632812 3.472656 23.859375 C 3.886719 23.925781 20.109375 23.925781 20.527344 23.859375 C 21.34375 23.722656 22.191406 23.273438 22.785156 22.65625 C 23.335938 22.085938 23.664062 21.5 23.890625 20.671875 C 23.972656 20.382812 23.976562 19.859375 23.976562 10.546875 C 23.976562 0.734375 23.976562 0.726562 23.882812 0.5625 C 23.828125 0.472656 23.695312 0.335938 23.585938 0.261719 C 23.347656 0.09375 22.996094 0.0703125 22.734375 0.203125 C 22.644531 0.25 22.011719 0.777344 21.332031 1.382812 C 20.648438 1.988281 20.082031 2.484375 20.0625 2.484375 C 20.046875 2.484375 19.46875 1.972656 18.773438 1.355469 C 18.074219 0.730469 17.441406 0.191406 17.359375 0.160156 C 17.152344 0.0703125 16.789062 0.078125 16.609375 0.179688 C 16.527344 0.21875 15.894531 0.757812 15.210938 1.375 C 14.523438 1.988281 13.945312 2.484375 13.925781 2.476562 C 13.902344 2.464844 13.332031 1.964844 12.65625 1.359375 C 11.980469 0.753906 11.359375 0.21875 11.277344 0.179688 C 11.101562 0.078125 10.738281 0.0703125 10.53125 0.160156 C 10.449219 0.191406 9.8125 0.730469 9.117188 1.355469 C 8.417969 1.972656 7.835938 2.484375 7.824219 2.484375 C 7.804688 2.484375 7.25 2.007812 6.589844 1.414062 C 5.101562 0.0976562 4.9375 0 4.484375 0.164062 Z M 12.164062 3.285156 C 12.859375 3.90625 13.484375 4.445312 13.5625 4.484375 C 13.734375 4.574219 14.15625 4.574219 14.328125 4.480469 C 14.398438 4.445312 15.019531 3.914062 15.699219 3.308594 C 16.378906 2.699219 16.949219 2.1875 16.972656 2.175781 C 16.996094 2.160156 17.574219 2.652344 18.261719 3.265625 C 18.945312 3.882812 19.585938 4.421875 19.679688 4.472656 C 19.890625 4.578125 20.230469 4.585938 20.441406 4.476562 C 20.53125 4.429688 20.953125 4.078125 21.382812 3.695312 C 21.816406 3.3125 22.179688 3 22.195312 3 C 22.210938 3 22.21875 6.84375 22.21875 11.539062 C 22.21875 18.53125 22.203125 20.128906 22.152344 20.320312 C 21.945312 21.097656 21.324219 21.765625 20.558594 22.027344 C 19.285156 22.46875 17.855469 21.707031 17.433594 20.367188 C 17.394531 20.246094 17.367188 19.679688 17.347656 18.722656 C 17.320312 17.269531 17.320312 17.265625 17.203125 17.09375 C 17.136719 16.992188 16.988281 16.871094 16.855469 16.804688 L 16.621094 16.6875 L 5.625 16.6875 L 5.625 9.839844 C 5.625 3.84375 5.632812 2.996094 5.695312 3.015625 C 5.734375 3.03125 6.101562 3.34375 6.515625 3.710938 C 6.929688 4.082031 7.34375 4.421875 7.433594 4.472656 C 7.671875 4.597656 8.011719 4.585938 8.257812 4.433594 C 8.371094 4.367188 9 3.828125 9.65625 3.238281 C 10.3125 2.644531 10.859375 2.160156 10.875 2.15625 C 10.890625 2.15625 11.464844 2.664062 12.164062 3.285156 Z M 15.625 19.484375 C 15.636719 20.34375 15.65625 20.558594 15.742188 20.835938 C 15.847656 21.195312 16.054688 21.664062 16.242188 21.976562 L 16.363281 22.171875 L 10.046875 22.164062 L 3.726562 22.148438 L 3.460938 22.046875 C 2.644531 21.734375 2.054688 21.101562 1.847656 20.320312 C 1.804688 20.164062 1.78125 19.804688 1.78125 19.273438 L 1.78125 18.46875 L 15.601562 18.46875 Z M 15.625 19.484375 "/>
<path fill="currentColor" style=" stroke:none;fill-rule:nonzero;" d="M 8.773438 8.066406 C 8.46875 8.21875 8.320312 8.476562 8.320312 8.835938 C 8.320312 9.070312 8.34375 9.160156 8.453125 9.320312 C 8.523438 9.425781 8.664062 9.558594 8.765625 9.609375 C 8.945312 9.699219 9.03125 9.703125 11.878906 9.703125 C 13.832031 9.703125 14.851562 9.683594 14.9375 9.652344 C 15.257812 9.535156 15.484375 9.195312 15.484375 8.835938 C 15.484375 8.476562 15.257812 8.136719 14.9375 8.019531 C 14.851562 7.988281 13.835938 7.96875 11.890625 7.96875 C 9.003906 7.96875 8.976562 7.96875 8.773438 8.066406 Z M 8.773438 8.066406 "/>
<path fill="currentColor" style=" stroke:none;fill-rule:nonzero;" d="M 8.789062 12.171875 C 8.5625 12.289062 8.445312 12.421875 8.363281 12.636719 C 8.203125 13.058594 8.386719 13.539062 8.773438 13.730469 C 8.980469 13.828125 8.984375 13.828125 13.964844 13.828125 C 18.765625 13.828125 18.945312 13.824219 19.117188 13.738281 C 19.449219 13.570312 19.59375 13.332031 19.59375 12.957031 C 19.59375 12.589844 19.378906 12.261719 19.0625 12.144531 C 18.976562 12.109375 17.351562 12.09375 13.929688 12.09375 C 9.464844 12.097656 8.914062 12.101562 8.789062 12.171875 Z M 8.789062 12.171875 "/>
</g>
</svg>
