<?xml version="1.0" encoding="UTF-8"?>
<svg xmlns="http://www.w3.org/2000/svg" xmlns:xlink="http://www.w3.org/1999/xlink" width="24px" height="24px" viewBox="0 0 24 24" version="1.1">
<g id="surface1">
<path fill="currentColor" style="stroke:none;fill-rule:nonzero;" d="M 10.554688 1.332031 C 7.800781 1.855469 5.878906 4.257812 6.015625 7.007812 C 6.160156 9.953125 8.558594 12.234375 11.507812 12.234375 C 12.742188 12.234375 13.828125 11.867188 14.820312 11.117188 C 16.316406 9.992188 17.164062 8.070312 16.96875 6.257812 C 16.714844 3.871094 15.136719 2.019531 12.847656 1.421875 C 12.285156 1.273438 11.109375 1.226562 10.554688 1.332031 Z M 12.320312 2.839844 C 13.476562 3.078125 14.511719 3.871094 15.042969 4.925781 C 15.378906 5.605469 15.476562 6.019531 15.476562 6.75 C 15.476562 7.480469 15.378906 7.894531 15.042969 8.574219 C 14.507812 9.636719 13.46875 10.425781 12.285156 10.664062 C 11.761719 10.773438 10.90625 10.738281 10.40625 10.59375 C 9.375 10.296875 8.480469 9.570312 7.972656 8.621094 C 6.726562 6.273438 8.066406 3.417969 10.6875 2.832031 C 11.0625 2.746094 11.890625 2.75 12.320312 2.839844 Z M 12.320312 2.839844 "/>
<path fill="currentColor" style="stroke:none;fill-rule:nonzero;" d="M 18.214844 12.285156 C 16.621094 12.5 15.277344 13.703125 14.882812 15.261719 C 14.789062 15.625 14.765625 15.835938 14.765625 16.304688 L 14.765625 16.894531 L 13.550781 18.09375 C 12.523438 19.101562 12.328125 19.316406 12.285156 19.476562 C 12.257812 19.585938 12.234375 20.179688 12.234375 20.882812 C 12.234375 22.058594 12.238281 22.117188 12.34375 22.3125 C 12.398438 22.429688 12.515625 22.570312 12.605469 22.625 C 12.757812 22.734375 12.792969 22.734375 14.113281 22.734375 C 14.949219 22.734375 15.511719 22.714844 15.59375 22.683594 C 15.664062 22.660156 16.265625 22.097656 16.929688 21.4375 L 18.132812 20.234375 L 18.757812 20.230469 C 19.496094 20.222656 19.847656 20.140625 20.460938 19.851562 C 21.488281 19.367188 22.28125 18.441406 22.59375 17.34375 C 22.824219 16.550781 22.761719 15.492188 22.445312 14.722656 C 22.144531 14.007812 21.453125 13.199219 20.832031 12.835938 C 20.042969 12.375 19.070312 12.167969 18.214844 12.285156 Z M 19.523438 13.878906 C 20.101562 14.058594 20.703125 14.574219 20.96875 15.117188 C 21.640625 16.492188 20.976562 18.136719 19.546875 18.617188 C 19.214844 18.730469 18.613281 18.757812 18.042969 18.683594 C 17.796875 18.652344 17.710938 18.660156 17.597656 18.71875 C 17.523438 18.757812 16.914062 19.339844 16.242188 20.011719 L 15.023438 21.234375 L 13.734375 21.234375 L 13.734375 20.039062 L 14.996094 18.773438 C 16.410156 17.351562 16.421875 17.34375 16.316406 16.847656 C 16.148438 15.992188 16.355469 15.183594 16.890625 14.59375 C 17.574219 13.84375 18.546875 13.578125 19.523438 13.878906 Z M 19.523438 13.878906 "/>
<path fill="currentColor" style="stroke:none;fill-rule:nonzero;" d="M 18.304688 15.277344 C 17.734375 15.539062 17.515625 16.171875 17.804688 16.738281 C 18.1875 17.5 19.238281 17.535156 19.667969 16.804688 C 19.992188 16.25 19.773438 15.539062 19.195312 15.277344 C 18.953125 15.164062 18.546875 15.164062 18.304688 15.277344 Z M 18.304688 15.277344 "/>
<path fill="currentColor" style="stroke:none;fill-rule:nonzero;" d="M 10.171875 13.15625 C 9.304688 13.238281 8.882812 13.289062 8.316406 13.382812 C 4.453125 14.03125 1.738281 15.828125 1.3125 18.027344 C 1.28125 18.203125 1.265625 18.707031 1.273438 19.40625 C 1.289062 20.488281 1.289062 20.511719 1.414062 20.773438 C 1.574219 21.117188 1.898438 21.441406 2.242188 21.601562 L 2.507812 21.726562 L 6.613281 21.742188 L 10.714844 21.75 L 10.875 21.648438 C 11.109375 21.488281 11.210938 21.3125 11.234375 21.0625 C 11.257812 20.757812 11.113281 20.5 10.828125 20.351562 L 10.621094 20.25 L 6.75 20.25 C 3.800781 20.25 2.863281 20.234375 2.820312 20.195312 C 2.78125 20.152344 2.765625 19.871094 2.765625 19.21875 C 2.765625 18.425781 2.78125 18.257812 2.855469 18.03125 C 3.3125 16.707031 5.398438 15.484375 8.15625 14.933594 C 9.359375 14.691406 9.800781 14.65625 11.59375 14.648438 C 13.191406 14.640625 13.273438 14.632812 13.398438 14.546875 C 13.847656 14.210938 13.847656 13.632812 13.402344 13.296875 C 13.320312 13.242188 13.148438 13.195312 12.933594 13.167969 C 12.609375 13.128906 10.53125 13.121094 10.171875 13.15625 Z M 10.171875 13.15625 "/>
</g>
</svg>
