<?xml version="1.0" encoding="UTF-8"?>
<svg xmlns="http://www.w3.org/2000/svg" xmlns:xlink="http://www.w3.org/1999/xlink" width="24px" height="24px" viewBox="0 0 24 24" version="1.1">
<g id="surface1">
<path fill="currentColor" style="stroke:none;fill-rule:nonzero;" d="M 16.476562 0.09375 C 16.269531 0.179688 15.589844 0.839844 10.71875 5.703125 C 6.257812 10.164062 5.171875 11.273438 5.082031 11.460938 C 4.996094 11.632812 4.96875 11.773438 4.96875 12 C 4.96875 12.617188 4.621094 12.234375 10.703125 18.308594 C 15.964844 23.574219 16.203125 23.808594 16.46875 23.902344 C 16.808594 24.027344 17.082031 24.027344 17.421875 23.898438 C 17.648438 23.816406 17.785156 23.710938 18.238281 23.253906 C 18.914062 22.585938 19.003906 22.425781 19.007812 21.914062 C 19.007812 21.640625 18.984375 21.488281 18.917969 21.351562 C 18.859375 21.226562 17.359375 19.6875 14.253906 16.578125 L 9.679688 12 L 14.257812 7.414062 C 16.777344 4.898438 18.871094 2.761719 18.917969 2.671875 C 18.960938 2.582031 19.007812 2.359375 19.023438 2.175781 C 19.054688 1.660156 18.929688 1.425781 18.242188 0.746094 C 17.785156 0.289062 17.648438 0.1875 17.421875 0.101562 C 17.089844 -0.0234375 16.785156 -0.0234375 16.476562 0.09375 Z M 16.476562 0.09375 "/>
</g>
</svg>
