<svg width="17" height="17" viewBox="0 0 17 17" fill="none" xmlns="http://www.w3.org/2000/svg">
<path d="M15.0527 0.5H1.94733C1.148 0.5 0.5 1.148 0.5 1.94733V15.0526C0.5 15.852 1.148 16.5 1.94733 16.5H15.0526C15.852 16.5 16.5 15.852 16.5 15.0526V1.94733C16.5 1.148 15.852 0.5 15.0527 0.5ZM5.45108 14.3155C5.45108 14.5481 5.26251 14.7366 5.02988 14.7366H3.23696C3.00434 14.7366 2.81577 14.5481 2.81577 14.3155V6.7996C2.81577 6.56697 3.00434 6.37841 3.23696 6.37841H5.02988C5.26251 6.37841 5.45108 6.56697 5.45108 6.7996V14.3155ZM4.13342 5.66993C3.19273 5.66993 2.43014 4.90733 2.43014 3.96664C2.43014 3.02595 3.19273 2.26335 4.13342 2.26335C5.07412 2.26335 5.83671 3.02595 5.83671 3.96664C5.83671 4.90733 5.07416 5.66993 4.13342 5.66993ZM14.8208 14.3494C14.8208 14.5632 14.6474 14.7366 14.4336 14.7366H12.5096C12.2958 14.7366 12.1224 14.5632 12.1224 14.3494V10.824C12.1224 10.2981 12.2766 8.51948 10.748 8.51948C9.56228 8.51948 9.32178 9.7369 9.27349 10.2832V14.3494C9.27349 14.5632 9.10013 14.7366 8.88622 14.7366H7.02545C6.81158 14.7366 6.63818 14.5632 6.63818 14.3494V6.76568C6.63818 6.55181 6.81158 6.37841 7.02545 6.37841H8.88622C9.10008 6.37841 9.27349 6.55181 9.27349 6.76568V7.42138C9.71315 6.76157 10.3666 6.25229 11.7578 6.25229C14.8385 6.25229 14.8208 9.13045 14.8208 10.7119V14.3494Z" fill="#0077B7"/>
</svg>
