<?xml version="1.0" encoding="UTF-8"?>
<svg xmlns="http://www.w3.org/2000/svg" xmlns:xlink="http://www.w3.org/1999/xlink" width="24px" height="24px" viewBox="0 0 24 24" version="1.1">
<g id="surface1">
<path fill="currentColor" style="stroke:none;fill-rule:nonzero;" d="M 8.289062 2.085938 C 7.472656 2.289062 6.710938 2.90625 6.324219 3.6875 L 6.179688 3.980469 L 4.457031 3.992188 C 2.804688 4.007812 2.738281 4.011719 2.554688 4.109375 C 2.195312 4.304688 2.015625 4.601562 2.015625 5.015625 C 2.015625 5.410156 2.265625 5.769531 2.632812 5.925781 C 2.78125 5.992188 3.074219 6 4.492188 6 L 6.171875 6 L 6.351562 6.359375 C 6.613281 6.894531 7.148438 7.421875 7.6875 7.679688 C 8.199219 7.917969 8.5 7.988281 9.023438 7.984375 C 9.847656 7.976562 10.480469 7.710938 11.089844 7.101562 C 11.375 6.816406 11.511719 6.636719 11.648438 6.359375 L 11.828125 6 L 16.507812 6 C 21.632812 6 21.371094 6.015625 21.675781 5.726562 C 22.054688 5.371094 22.085938 4.695312 21.734375 4.320312 C 21.679688 4.261719 21.546875 4.164062 21.445312 4.109375 L 21.257812 4.007812 L 16.539062 3.984375 L 11.816406 3.960938 L 11.675781 3.679688 C 11.277344 2.886719 10.523438 2.28125 9.699219 2.085938 C 9.332031 2 8.648438 2 8.289062 2.085938 Z M 9.460938 4.121094 C 10.199219 4.5 10.144531 5.601562 9.367188 5.925781 C 8.738281 6.1875 8.015625 5.703125 8.015625 5.015625 C 8.015625 4.242188 8.773438 3.769531 9.460938 4.121094 Z M 9.460938 4.121094 "/>
<path fill="currentColor" style="stroke:none;fill-rule:nonzero;" d="M 14.460938 9.046875 C 13.539062 9.242188 12.777344 9.8125 12.371094 10.613281 L 12.164062 11.015625 L 2.734375 11.015625 L 2.527344 11.125 C 2.414062 11.183594 2.257812 11.324219 2.179688 11.433594 C 2.054688 11.617188 2.039062 11.667969 2.039062 12 C 2.039062 12.332031 2.054688 12.382812 2.179688 12.566406 C 2.257812 12.675781 2.414062 12.816406 2.527344 12.875 L 2.734375 12.984375 L 12.164062 12.984375 L 12.371094 13.386719 C 12.847656 14.320312 13.777344 14.925781 14.835938 14.984375 C 16.046875 15.054688 17.128906 14.410156 17.675781 13.296875 L 17.832031 12.988281 L 19.59375 12.976562 L 21.355469 12.960938 L 21.53125 12.84375 C 21.628906 12.777344 21.765625 12.640625 21.835938 12.542969 C 21.945312 12.378906 21.960938 12.3125 21.960938 11.996094 C 21.960938 11.667969 21.945312 11.617188 21.820312 11.433594 C 21.746094 11.324219 21.585938 11.183594 21.472656 11.125 C 21.265625 11.015625 21.257812 11.015625 19.550781 11.015625 L 17.835938 11.015625 L 17.628906 10.613281 C 17.140625 9.65625 16.195312 9.054688 15.117188 9.019531 C 14.859375 9.007812 14.5625 9.023438 14.460938 9.046875 Z M 15.535156 11.15625 C 15.628906 11.222656 15.765625 11.359375 15.835938 11.457031 C 15.945312 11.621094 15.960938 11.6875 15.960938 12 C 15.960938 12.3125 15.945312 12.378906 15.835938 12.542969 C 15.765625 12.640625 15.628906 12.777344 15.53125 12.84375 C 15.382812 12.941406 15.304688 12.960938 15 12.960938 C 14.695312 12.960938 14.617188 12.941406 14.46875 12.84375 C 14.371094 12.777344 14.234375 12.640625 14.164062 12.542969 C 14.054688 12.378906 14.039062 12.3125 14.039062 11.996094 C 14.039062 11.667969 14.054688 11.617188 14.179688 11.433594 C 14.390625 11.132812 14.667969 11.007812 15.050781 11.023438 C 15.285156 11.039062 15.402344 11.070312 15.535156 11.15625 Z M 15.535156 11.15625 "/>
<path fill="currentColor" style="stroke:none;fill-rule:nonzero;" d="M 8.71875 16.011719 C 8.265625 16.085938 8.039062 16.15625 7.6875 16.320312 C 7.148438 16.578125 6.613281 17.109375 6.351562 17.632812 L 6.171875 18 L 4.492188 18 C 3.074219 18 2.78125 18.007812 2.632812 18.074219 C 2.265625 18.230469 2.015625 18.589844 2.015625 18.984375 C 2.015625 19.398438 2.195312 19.695312 2.554688 19.890625 C 2.738281 19.988281 2.804688 19.992188 4.457031 20.007812 L 6.179688 20.019531 L 6.324219 20.3125 C 7.171875 22.027344 9.347656 22.523438 10.84375 21.351562 C 11.160156 21.097656 11.484375 20.699219 11.675781 20.320312 L 11.816406 20.039062 L 16.539062 20.015625 L 21.257812 19.992188 L 21.445312 19.890625 C 21.804688 19.695312 21.984375 19.398438 21.984375 18.984375 C 21.984375 18.589844 21.734375 18.230469 21.367188 18.074219 C 21.210938 18.007812 20.632812 18 16.507812 18 L 11.828125 18 L 11.648438 17.632812 C 11.304688 16.941406 10.519531 16.296875 9.773438 16.105469 C 9.46875 16.03125 8.910156 15.980469 8.71875 16.011719 Z M 9.398438 18.089844 C 10.140625 18.421875 10.179688 19.476562 9.46875 19.871094 C 8.96875 20.152344 8.3125 19.925781 8.085938 19.398438 C 7.742188 18.570312 8.597656 17.722656 9.398438 18.089844 Z M 9.398438 18.089844 "/>
</g>
</svg>
