<?xml version="1.0" encoding="UTF-8"?>
<svg xmlns="http://www.w3.org/2000/svg" xmlns:xlink="http://www.w3.org/1999/xlink" width="24px" height="24px" viewBox="0 0 24 24" version="1.1">
<g id="surface1">
<path fill="currentColor" style="stroke:none;fill-rule:nonzero;" d="M 3.335938 1.332031 C 2.367188 1.570312 1.515625 2.441406 1.316406 3.417969 C 1.28125 3.59375 1.265625 5.820312 1.265625 11.011719 C 1.265625 19.132812 1.246094 18.625 1.574219 19.28125 C 1.902344 19.929688 2.625 20.492188 3.375 20.675781 C 3.582031 20.726562 4.355469 20.742188 7.171875 20.742188 L 10.710938 20.742188 L 10.890625 20.628906 C 11.128906 20.484375 11.269531 20.203125 11.234375 19.929688 C 11.210938 19.695312 11.101562 19.523438 10.875 19.367188 L 10.71875 19.265625 L 7.3125 19.265625 C 3.554688 19.265625 3.617188 19.269531 3.226562 18.96875 C 3.113281 18.886719 2.972656 18.710938 2.898438 18.566406 L 2.765625 18.320312 L 2.765625 7.734375 L 21.234375 7.734375 L 21.234375 9.382812 C 21.234375 10.359375 21.253906 11.109375 21.28125 11.210938 C 21.347656 11.441406 21.636719 11.699219 21.886719 11.742188 C 22.132812 11.785156 22.476562 11.625 22.625 11.394531 C 22.734375 11.234375 22.734375 11.234375 22.734375 9.144531 C 22.738281 4.835938 22.730469 3.636719 22.683594 3.402344 C 22.53125 2.6875 21.957031 1.925781 21.300781 1.585938 C 20.652344 1.246094 21.289062 1.265625 11.976562 1.269531 C 5.328125 1.273438 3.535156 1.285156 3.335938 1.332031 Z M 20.535156 2.875 C 20.757812 2.980469 21.019531 3.242188 21.125 3.464844 C 21.203125 3.613281 21.210938 3.789062 21.226562 4.929688 L 21.238281 6.234375 L 2.765625 6.234375 L 2.765625 4.996094 C 2.765625 4.191406 2.785156 3.707031 2.820312 3.605469 C 2.933594 3.261719 3.234375 2.957031 3.582031 2.828125 C 3.6875 2.785156 5.757812 2.773438 12.046875 2.78125 C 19.984375 2.789062 20.375 2.792969 20.535156 2.875 Z M 20.535156 2.875 "/>
<path fill="currentColor" style="stroke:none;fill-rule:nonzero;" d="M 4.734375 3.800781 C 4.3125 3.976562 4.128906 4.519531 4.375 4.875 C 4.597656 5.207031 4.65625 5.226562 5.507812 5.226562 C 6.347656 5.226562 6.398438 5.210938 6.628906 4.902344 C 6.765625 4.71875 6.765625 4.28125 6.628906 4.097656 C 6.402344 3.796875 6.335938 3.773438 5.5625 3.765625 C 5.15625 3.757812 4.800781 3.773438 4.734375 3.800781 Z M 4.734375 3.800781 "/>
<path fill="currentColor" style="stroke:none;fill-rule:nonzero;" d="M 8.136719 3.859375 C 7.625 4.144531 7.640625 4.894531 8.160156 5.15625 C 8.316406 5.234375 8.4375 5.25 9 5.25 C 9.5625 5.25 9.683594 5.234375 9.839844 5.15625 C 10.367188 4.890625 10.367188 4.109375 9.839844 3.84375 C 9.683594 3.765625 9.566406 3.75 8.992188 3.75 C 8.386719 3.75 8.300781 3.757812 8.136719 3.859375 Z M 8.136719 3.859375 "/>
<path fill="currentColor" style="stroke:none;fill-rule:nonzero;" d="M 16.734375 11.300781 C 16.597656 11.359375 16.421875 11.511719 16.34375 11.648438 C 16.3125 11.703125 16.28125 12.066406 16.265625 12.539062 L 16.242188 13.332031 L 15.976562 13.398438 C 15.824219 13.433594 15.53125 13.550781 15.320312 13.660156 L 14.929688 13.855469 L 14.390625 13.332031 C 13.992188 12.941406 13.804688 12.792969 13.664062 12.75 C 13.121094 12.589844 12.589844 13.121094 12.75 13.664062 C 12.792969 13.804688 12.941406 13.992188 13.332031 14.390625 L 13.855469 14.929688 L 13.660156 15.320312 C 13.550781 15.53125 13.433594 15.824219 13.398438 15.976562 L 13.332031 16.242188 L 12.53125 16.265625 C 11.8125 16.285156 11.710938 16.296875 11.597656 16.386719 C 11.136719 16.726562 11.148438 17.34375 11.609375 17.628906 C 11.773438 17.734375 11.855469 17.742188 12.558594 17.765625 L 13.320312 17.789062 L 13.433594 18.140625 C 13.496094 18.332031 13.617188 18.617188 13.703125 18.773438 L 13.855469 19.054688 L 13.332031 19.59375 C 12.730469 20.210938 12.640625 20.382812 12.75 20.726562 C 12.820312 20.972656 13.074219 21.21875 13.289062 21.261719 C 13.644531 21.328125 13.765625 21.261719 14.359375 20.679688 L 14.90625 20.136719 L 15.296875 20.335938 C 15.511719 20.4375 15.820312 20.5625 15.976562 20.605469 L 16.265625 20.6875 L 16.265625 21.4375 C 16.265625 22.265625 16.304688 22.421875 16.5625 22.601562 C 16.78125 22.761719 17.179688 22.777344 17.386719 22.632812 C 17.699219 22.421875 17.742188 22.289062 17.757812 21.4375 L 17.773438 20.675781 L 18.039062 20.601562 C 18.1875 20.558594 18.476562 20.4375 18.695312 20.335938 L 19.082031 20.140625 L 19.632812 20.6875 C 20.222656 21.265625 20.335938 21.328125 20.703125 21.257812 C 20.933594 21.214844 21.214844 20.933594 21.257812 20.703125 C 21.328125 20.335938 21.265625 20.222656 20.6875 19.632812 L 20.140625 19.082031 L 20.335938 18.695312 C 20.4375 18.476562 20.558594 18.183594 20.601562 18.03125 L 20.675781 17.765625 L 21.394531 17.765625 C 22.039062 17.765625 22.125 17.757812 22.3125 17.65625 C 22.621094 17.503906 22.75 17.292969 22.726562 16.964844 C 22.703125 16.660156 22.574219 16.453125 22.339844 16.339844 C 22.214844 16.28125 22.027344 16.265625 21.4375 16.265625 L 20.6875 16.265625 L 20.605469 15.976562 C 20.5625 15.820312 20.4375 15.511719 20.335938 15.296875 L 20.136719 14.90625 L 20.679688 14.359375 C 21.261719 13.765625 21.328125 13.644531 21.261719 13.289062 C 21.21875 13.074219 20.972656 12.820312 20.726562 12.75 C 20.382812 12.640625 20.210938 12.730469 19.59375 13.332031 L 19.054688 13.855469 L 18.773438 13.703125 C 18.617188 13.617188 18.332031 13.496094 18.140625 13.433594 L 17.789062 13.320312 L 17.765625 12.558594 C 17.742188 11.855469 17.734375 11.773438 17.628906 11.609375 C 17.445312 11.3125 17.046875 11.175781 16.734375 11.300781 Z M 17.527344 14.816406 C 18.132812 14.953125 18.746094 15.453125 19.035156 16.054688 C 19.191406 16.378906 19.195312 16.390625 19.195312 16.992188 C 19.195312 17.582031 19.191406 17.609375 19.046875 17.921875 C 18.828125 18.371094 18.40625 18.796875 17.957031 19.023438 C 17.605469 19.195312 17.605469 19.195312 16.996094 19.195312 C 16.390625 19.195312 16.378906 19.191406 16.054688 19.035156 C 15.640625 18.835938 15.160156 18.367188 14.984375 17.996094 C 14.570312 17.109375 14.742188 16.097656 15.417969 15.417969 C 15.703125 15.136719 15.945312 14.984375 16.359375 14.855469 C 16.648438 14.761719 17.207031 14.742188 17.527344 14.816406 Z M 17.527344 14.816406 "/>
</g>
</svg>
