<?xml version="1.0" standalone="no"?>
<!DOCTYPE svg PUBLIC "-//W3C//DTD SVG 20010904//EN"
 "http://www.w3.org/TR/2001/REC-SVG-20010904/DTD/svg10.dtd">
<svg version="1.0" xmlns="http://www.w3.org/2000/svg"
 width="512.000000pt" height="512.000000pt" viewBox="0 0 512.000000 512.000000"
 preserveAspectRatio="xMidYMid meet">

<g transform="translate(0.000000,512.000000) scale(0.100000,-0.100000)" stroke="none">
<path fill="currentColor"  d="M1106 4709 c-62 -15 -153 -68 -197 -116 -22 -24 -55 -74 -72 -111
l-32 -67 -3 -927 -2 -928 -168 0 c-203 0 -243 -10 -313 -80 -85 -85 -102 -206
-42 -310 21 -36 178 -187 593 -571 311 -287 742 -686 958 -885 216 -200 413
-375 438 -390 210 -123 469 -104 651 48 28 23 469 430 978 903 819 760 929
866 953 915 52 106 27 230 -60 304 -66 57 -109 66 -300 66 l-168 0 -2 928 -3
927 -32 67 c-44 93 -100 151 -191 196 l-76 37 -1435 2 c-845 1 -1452 -3 -1475
-8z m2865 -328 l24 -19 5 -1010 c5 -1001 5 -1011 26 -1038 48 -66 59 -69 258
-74 l183 -5 -874 -810 c-571 -530 -891 -820 -924 -837 -66 -36 -143 -38 -211
-5 -34 16 -300 256 -926 837 l-878 815 182 5 c199 5 210 8 258 74 21 27 21 37
26 1038 l5 1010 24 19 c23 18 60 19 1411 19 1351 0 1388 -1 1411 -19z"/>
<path fill="currentColor"  d="M2495 3826 c-64 -29 -95 -85 -95 -169 l0 -53 -69 -10 c-278 -44 -465
-321 -396 -587 41 -160 148 -277 308 -340 42 -16 84 -21 214 -26 176 -7 190
-11 237 -75 18 -23 21 -42 21 -126 0 -107 -9 -130 -69 -174 -26 -20 -45 -21
-286 -26 -284 -5 -283 -5 -334 -74 -29 -39 -29 -133 0 -172 39 -52 70 -68 143
-72 l69 -4 4 -69 c6 -109 59 -164 158 -164 99 0 152 55 158 163 l4 68 68 11
c190 29 346 172 395 358 19 76 19 234 0 308 -41 160 -148 277 -308 340 -42 16
-84 21 -214 26 -176 7 -190 11 -237 75 -29 39 -29 133 0 172 51 69 50 69 334
74 284 5 283 5 334 74 29 39 29 133 0 172 -39 52 -70 68 -143 72 l-69 4 -4 69
c-4 73 -20 104 -70 142 -34 25 -113 32 -153 13z"/>
</g>
</svg>
