<?xml version="1.0" encoding="UTF-8"?>
<svg xmlns="http://www.w3.org/2000/svg" xmlns:xlink="http://www.w3.org/1999/xlink" width="24px" height="24px" viewBox="0 0 24 24" version="1.1">
<g id="surface1">
<path fill="currentColor" style="stroke:none;fill-rule:nonzero;" d="M 19.453125 0.0976562 C 19.363281 0.148438 19.257812 0.238281 19.214844 0.296875 C 19.101562 0.449219 15.726562 5.953125 15.636719 6.125 C 15.476562 6.441406 15.609375 6.84375 15.9375 7.027344 C 16.082031 7.105469 16.195312 7.125 16.542969 7.125 L 16.96875 7.125 L 16.96875 22.59375 L 15.5625 22.59375 L 15.5625 16.546875 C 15.5625 10.574219 15.5625 10.496094 15.46875 10.3125 C 15.40625 10.191406 15.308594 10.09375 15.1875 10.03125 C 15.007812 9.941406 14.914062 9.9375 12.75 9.9375 C 10.585938 9.9375 10.492188 9.941406 10.3125 10.03125 C 10.191406 10.09375 10.09375 10.191406 10.03125 10.3125 C 9.9375 10.496094 9.9375 10.574219 9.9375 16.546875 L 9.9375 22.59375 L 8.53125 22.59375 L 8.53125 18.65625 C 8.53125 14.796875 8.53125 14.710938 8.4375 14.53125 C 8.375 14.410156 8.277344 14.3125 8.15625 14.25 C 7.976562 14.160156 7.882812 14.15625 5.71875 14.15625 C 3.554688 14.15625 3.460938 14.160156 3.28125 14.25 C 3.160156 14.3125 3.0625 14.410156 3 14.53125 C 2.90625 14.710938 2.90625 14.796875 2.90625 18.65625 L 2.90625 22.59375 L 1.734375 22.59375 C 0.648438 22.59375 0.542969 22.601562 0.375 22.6875 C 0.164062 22.796875 0 23.0625 0 23.296875 C 0 23.53125 0.164062 23.796875 0.375 23.90625 C 0.558594 24 0.625 24 12 24 C 23.375 24 23.441406 24 23.625 23.90625 C 23.835938 23.796875 24 23.53125 24 23.296875 C 24 23.0625 23.835938 22.796875 23.625 22.6875 C 23.480469 22.613281 23.347656 22.59375 23.015625 22.59375 L 22.59375 22.59375 L 22.59375 7.125 L 23.019531 7.125 C 23.367188 7.125 23.480469 7.105469 23.625 7.027344 C 23.953125 6.84375 24.085938 6.441406 23.925781 6.125 C 23.835938 5.953125 20.460938 0.449219 20.347656 0.296875 C 20.242188 0.144531 19.953125 0 19.777344 0 C 19.6875 0 19.542969 0.046875 19.453125 0.0976562 Z M 20.914062 3.882812 L 22.023438 5.695312 L 21.851562 5.722656 C 21.582031 5.761719 21.382812 5.890625 21.28125 6.09375 C 21.1875 6.277344 21.1875 6.355469 21.1875 14.4375 L 21.1875 22.59375 L 18.375 22.59375 L 18.375 14.4375 C 18.375 6.355469 18.375 6.277344 18.28125 6.09375 C 18.179688 5.890625 17.980469 5.761719 17.710938 5.722656 L 17.535156 5.695312 L 18.648438 3.882812 C 19.257812 2.882812 19.765625 2.066406 19.78125 2.066406 C 19.796875 2.066406 20.304688 2.882812 20.914062 3.882812 Z M 14.15625 16.96875 L 14.15625 22.59375 L 11.34375 22.59375 L 11.34375 11.34375 L 14.15625 11.34375 Z M 7.125 19.078125 L 7.125 22.59375 L 4.3125 22.59375 L 4.3125 15.5625 L 7.125 15.5625 Z M 7.125 19.078125 "/>
</g>
</svg>
