<?xml version="1.0" encoding="UTF-8"?>
<svg xmlns="http://www.w3.org/2000/svg" xmlns:xlink="http://www.w3.org/1999/xlink" width="24px" height="24px" viewBox="0 0 24 24" version="1.1">
<g id="surface1">
<path fill="currentColor" style="stroke:none;fill-rule:nonzero;" d="M 11.1875 0.0703125 C 9.34375 0.421875 7.917969 1.757812 7.445312 3.585938 C 7.363281 3.894531 7.34375 4.152344 7.328125 5.046875 L 7.304688 6.140625 L 1.992188 6.140625 L 0.992188 13.601562 C 0.445312 17.710938 -0.00390625 21.167969 0 21.285156 C 0 21.59375 0.164062 22.179688 0.335938 22.515625 C 0.535156 22.894531 1.105469 23.464844 1.484375 23.664062 C 1.644531 23.746094 1.9375 23.855469 2.136719 23.90625 C 2.492188 24 2.691406 24 11.972656 24 C 22.46875 24 21.777344 24.019531 22.453125 23.691406 C 23.328125 23.257812 23.984375 22.222656 24 21.257812 C 24.003906 21.15625 23.554688 17.710938 23.007812 13.601562 L 22.007812 6.140625 L 16.6875 6.140625 L 16.6875 5.230469 C 16.6875 3.96875 16.574219 3.375 16.191406 2.609375 C 15.566406 1.367188 14.445312 0.46875 13.101562 0.136719 C 12.601562 0.0078125 11.675781 -0.0234375 11.1875 0.0703125 Z M 12.675781 1.96875 C 13.203125 2.105469 13.566406 2.3125 13.96875 2.71875 C 14.375 3.121094 14.582031 3.484375 14.71875 4.011719 C 14.792969 4.308594 14.8125 4.53125 14.8125 5.257812 L 14.8125 6.140625 L 9.1875 6.140625 L 9.1875 5.257812 C 9.1875 4.257812 9.253906 3.875 9.523438 3.359375 C 9.722656 2.980469 10.292969 2.410156 10.671875 2.210938 C 11.296875 1.882812 12.015625 1.800781 12.675781 1.96875 Z M 7.3125 9.445312 L 7.3125 10.875 L 9.1875 10.875 L 9.1875 8.015625 L 14.8125 8.015625 L 14.8125 10.875 L 16.6875 10.875 L 16.6875 8.015625 L 20.367188 8.015625 L 21.253906 14.632812 C 22.242188 22.039062 22.195312 21.492188 21.84375 21.84375 C 21.746094 21.941406 21.582031 22.046875 21.484375 22.074219 C 21.234375 22.144531 2.765625 22.144531 2.515625 22.074219 C 2.417969 22.046875 2.253906 21.941406 2.15625 21.84375 C 1.804688 21.492188 1.757812 22.039062 2.746094 14.632812 L 3.632812 8.015625 L 7.3125 8.015625 Z M 7.3125 9.445312 "/>
</g>
</svg>
