<?xml version="1.0" encoding="UTF-8"?>
<svg xmlns="http://www.w3.org/2000/svg" xmlns:xlink="http://www.w3.org/1999/xlink" width="24px" height="24px" viewBox="0 0 24 24" version="1.1">
<g id="surface1">
<path fill="currentColor" style="stroke:none;fill-rule:nonzero;" d="M 3.375 1.367188 C 3.289062 1.429688 3.171875 1.539062 3.121094 1.609375 L 3.023438 1.738281 L 3.007812 9.460938 C 3 14.933594 3.015625 17.269531 3.046875 17.484375 C 3.21875 18.496094 4.0625 19.402344 5.085938 19.664062 C 5.316406 19.71875 5.757812 19.734375 7.667969 19.734375 L 9.96875 19.734375 L 10.125 19.625 C 10.351562 19.476562 10.460938 19.304688 10.484375 19.070312 C 10.519531 18.796875 10.378906 18.515625 10.140625 18.371094 L 9.960938 18.257812 L 7.664062 18.234375 C 5.40625 18.210938 5.363281 18.210938 5.175781 18.109375 C 5.066406 18.050781 4.902344 17.914062 4.8125 17.808594 C 4.484375 17.429688 4.5 17.625 4.5 13.210938 L 4.5 9.234375 L 9.96875 9.234375 L 10.125 9.125 C 10.351562 8.976562 10.460938 8.804688 10.484375 8.570312 C 10.519531 8.296875 10.378906 8.015625 10.140625 7.871094 L 9.960938 7.757812 L 7.234375 7.742188 L 4.5 7.730469 L 4.492188 4.734375 C 4.476562 1.78125 4.476562 1.738281 4.378906 1.609375 C 4.214844 1.382812 3.992188 1.265625 3.75 1.265625 C 3.601562 1.265625 3.484375 1.296875 3.375 1.367188 Z M 3.375 1.367188 "/>
<path fill="currentColor" style="stroke:none;fill-rule:nonzero;" d="M 12.675781 4.210938 C 12.1875 4.382812 11.820312 4.738281 11.609375 5.253906 C 11.507812 5.503906 11.507812 5.550781 11.492188 8.125 C 11.480469 10.855469 11.492188 11.089844 11.679688 11.480469 C 11.835938 11.808594 12.253906 12.195312 12.585938 12.332031 L 12.867188 12.445312 L 19.664062 12.445312 L 19.96875 12.300781 C 20.351562 12.117188 20.644531 11.828125 20.832031 11.4375 L 20.976562 11.132812 L 20.976562 6.585938 L 20.832031 6.28125 C 20.648438 5.890625 20.359375 5.601562 19.96875 5.417969 L 19.664062 5.273438 L 18.417969 5.25 L 17.175781 5.226562 L 16.683594 4.808594 C 16.414062 4.578125 16.078125 4.339844 15.9375 4.269531 L 15.679688 4.148438 L 14.296875 4.140625 C 13.074219 4.125 12.886719 4.132812 12.675781 4.210938 Z M 15.828125 6.054688 C 16.105469 6.289062 16.453125 6.539062 16.59375 6.605469 C 16.847656 6.726562 16.871094 6.726562 18.09375 6.742188 C 19.144531 6.753906 19.351562 6.769531 19.421875 6.828125 C 19.496094 6.898438 19.5 7.058594 19.5 8.851562 C 19.5 10.597656 19.492188 10.804688 19.421875 10.882812 C 19.351562 10.964844 19.191406 10.96875 16.257812 10.96875 C 13.234375 10.96875 13.171875 10.96875 13.078125 10.875 C 12.988281 10.785156 12.984375 10.71875 12.984375 8.304688 C 12.984375 6.144531 12.992188 5.820312 13.058594 5.726562 C 13.128906 5.625 13.148438 5.625 14.226562 5.625 L 15.324219 5.625 Z M 15.828125 6.054688 "/>
<path fill="currentColor" style="stroke:none;fill-rule:nonzero;" d="M 12.792969 14.453125 C 12.289062 14.59375 11.8125 15.023438 11.617188 15.507812 L 11.507812 15.773438 L 11.507812 21.351562 L 11.617188 21.617188 C 11.8125 22.105469 12.257812 22.527344 12.71875 22.664062 C 13.074219 22.765625 19.410156 22.773438 19.765625 22.664062 C 20.300781 22.503906 20.742188 22.058594 20.910156 21.511719 C 21 21.214844 21.003906 21.097656 20.992188 19.027344 L 20.976562 16.851562 L 20.851562 16.585938 C 20.59375 16.03125 20.105469 15.664062 19.496094 15.566406 C 19.332031 15.539062 18.742188 15.515625 18.183594 15.515625 L 17.175781 15.515625 L 16.707031 15.117188 C 16.453125 14.898438 16.105469 14.648438 15.9375 14.5625 L 15.636719 14.414062 L 14.320312 14.40625 C 13.378906 14.394531 12.945312 14.410156 12.792969 14.453125 Z M 15.796875 16.3125 C 16.070312 16.546875 16.40625 16.796875 16.546875 16.867188 C 16.804688 16.992188 16.804688 16.992188 18.085938 17.015625 C 19.285156 17.039062 19.375 17.042969 19.433594 17.128906 C 19.492188 17.203125 19.5 17.558594 19.5 19.152344 C 19.5 20.851562 19.492188 21.097656 19.425781 21.160156 C 19.359375 21.226562 19.007812 21.234375 16.242188 21.234375 L 13.128906 21.234375 L 13.058594 21.132812 C 12.992188 21.039062 12.984375 20.714844 12.984375 18.554688 C 12.984375 16.140625 12.988281 16.074219 13.078125 15.984375 C 13.167969 15.894531 13.234375 15.890625 14.242188 15.890625 L 15.304688 15.890625 Z M 15.796875 16.3125 "/>
</g>
</svg>
