<?xml version="1.0" encoding="UTF-8"?>
<svg xmlns="http://www.w3.org/2000/svg" xmlns:xlink="http://www.w3.org/1999/xlink" width="24px" height="24px" viewBox="0 0 24 24" version="1.1">
<g id="surface1">
<path fill="currentColor"  style="stroke:none;fill-rule:nonzero;" d="M 3.09375 12 L 3.09375 24 L 20.90625 24 L 20.90625 0 L 3.09375 0 Z M 19.5 12 L 19.5 22.59375 L 4.5 22.59375 L 4.5 1.40625 L 19.5 1.40625 Z M 19.5 12 "/>
<path fill="currentColor"  style="stroke:none;fill-rule:nonzero;" d="M 9.757812 3.84375 C 8.976562 4.027344 8.789062 5.070312 9.460938 5.535156 C 9.703125 5.699219 10.128906 5.714844 10.40625 5.570312 C 11.058594 5.21875 11.046875 4.257812 10.382812 3.929688 C 10.195312 3.828125 9.945312 3.796875 9.757812 3.84375 Z M 9.757812 3.84375 "/>
<path fill="currentColor"  style="stroke:none;fill-rule:nonzero;" d="M 11.492188 6.296875 L 9 8.789062 L 9.484375 9.273438 C 9.746094 9.535156 9.984375 9.75 10.007812 9.75 C 10.035156 9.75 11.175781 8.632812 12.539062 7.265625 L 15.023438 4.78125 L 14.53125 4.289062 C 14.257812 4.015625 14.03125 3.796875 14.015625 3.796875 C 14 3.796875 12.867188 4.921875 11.492188 6.296875 Z M 11.492188 6.296875 "/>
<path fill="currentColor"  style="stroke:none;fill-rule:nonzero;" d="M 13.710938 7.945312 C 13.457031 8.035156 13.191406 8.339844 13.132812 8.605469 C 13.011719 9.179688 13.390625 9.699219 13.96875 9.742188 C 14.28125 9.757812 14.574219 9.628906 14.785156 9.359375 C 15.066406 9.007812 14.980469 8.367188 14.621094 8.101562 C 14.320312 7.875 14.042969 7.828125 13.710938 7.945312 Z M 13.710938 7.945312 "/>
<path fill="currentColor"  style="stroke:none;fill-rule:nonzero;" d="M 7.03125 12.890625 L 7.03125 13.59375 L 16.96875 13.59375 L 16.96875 12.1875 L 7.03125 12.1875 Z M 7.03125 12.890625 "/>
<path fill="currentColor"  style="stroke:none;fill-rule:nonzero;" d="M 7.03125 16.359375 L 7.03125 17.0625 L 16.96875 17.0625 L 16.96875 15.65625 L 7.03125 15.65625 Z M 7.03125 16.359375 "/>
<path fill="currentColor"  style="stroke:none;fill-rule:nonzero;" d="M 7.03125 19.828125 L 7.03125 20.53125 L 16.96875 20.53125 L 16.96875 19.125 L 7.03125 19.125 Z M 7.03125 19.828125 "/>
</g>
</svg>
