<?xml version="1.0" encoding="UTF-8"?>
<svg xmlns="http://www.w3.org/2000/svg" xmlns:xlink="http://www.w3.org/1999/xlink" width="24px" height="24px" viewBox="0 0 24 24" version="1.1">
<g id="surface1">
<path fill="currentColor" style=" stroke:none;fill-rule:nonzero;" d="M 6.210938 2.035156 C 5.511719 2.152344 5.023438 2.316406 4.445312 2.640625 C 2.628906 3.636719 1.566406 5.667969 1.78125 7.714844 C 1.902344 8.851562 2.316406 9.773438 3.089844 10.671875 L 3.359375 10.992188 L 3.003906 11.234375 C 2.109375 11.84375 1.25 12.84375 0.75 13.851562 C 0.4375 14.484375 0.285156 14.90625 0.136719 15.585938 C 0.0429688 16.015625 0.03125 16.214844 0.015625 17.960938 L -0.0078125 19.875 L 5.015625 19.875 L 5.015625 22.03125 L 18.984375 22.03125 L 18.984375 19.875 L 24.007812 19.875 L 23.984375 17.960938 C 23.96875 16.214844 23.957031 16.015625 23.863281 15.585938 C 23.714844 14.90625 23.5625 14.484375 23.25 13.851562 C 22.75 12.84375 21.9375 11.898438 21.019531 11.253906 L 20.640625 10.988281 L 20.863281 10.734375 C 21.890625 9.582031 22.375 8.132812 22.21875 6.675781 C 21.96875 4.375 20.328125 2.5625 18.046875 2.082031 C 17.578125 1.976562 16.597656 1.96875 16.125 2.058594 C 14.90625 2.289062 13.726562 2.980469 12.984375 3.914062 L 12.757812 4.195312 L 12.378906 4.171875 C 12.171875 4.15625 11.828125 4.15625 11.621094 4.171875 L 11.242188 4.195312 L 11.015625 3.914062 C 10.28125 2.992188 9.078125 2.277344 7.898438 2.0625 C 7.433594 1.976562 6.617188 1.964844 6.210938 2.035156 Z M 7.773438 3.355469 C 8.464844 3.496094 9.101562 3.828125 9.632812 4.320312 L 9.910156 4.578125 L 9.609375 4.734375 C 9.144531 4.96875 8.578125 5.394531 8.203125 5.796875 C 7.496094 6.554688 7.058594 7.425781 6.863281 8.484375 C 6.726562 9.210938 6.816406 10.40625 7.058594 11.035156 C 7.082031 11.101562 7.046875 11.109375 6.792969 11.109375 C 5.242188 11.105469 3.746094 9.957031 3.226562 8.375 C 3.074219 7.917969 3.070312 7.875 3.074219 7.171875 C 3.074219 6.507812 3.089844 6.414062 3.207031 6.046875 C 3.359375 5.578125 3.464844 5.371094 3.71875 4.992188 C 4.292969 4.144531 5.140625 3.570312 6.148438 3.351562 C 6.558594 3.261719 7.335938 3.265625 7.773438 3.355469 Z M 17.832031 3.351562 C 18.851562 3.566406 19.703125 4.132812 20.28125 4.992188 C 20.535156 5.371094 20.640625 5.578125 20.792969 6.046875 C 20.910156 6.414062 20.925781 6.507812 20.925781 7.171875 C 20.929688 7.875 20.925781 7.917969 20.773438 8.375 C 20.253906 9.957031 18.757812 11.105469 17.207031 11.109375 C 16.953125 11.109375 16.917969 11.101562 16.941406 11.035156 C 17.183594 10.40625 17.273438 9.210938 17.136719 8.484375 C 16.941406 7.425781 16.503906 6.554688 15.796875 5.796875 C 15.421875 5.394531 14.855469 4.96875 14.390625 4.734375 L 14.089844 4.578125 L 14.367188 4.320312 C 14.886719 3.839844 15.523438 3.5 16.195312 3.359375 C 16.621094 3.265625 17.417969 3.261719 17.832031 3.351562 Z M 12.773438 5.527344 C 14.105469 5.796875 15.160156 6.695312 15.679688 7.992188 C 15.839844 8.394531 15.914062 8.832031 15.910156 9.398438 C 15.910156 10.085938 15.824219 10.449219 15.515625 11.085938 C 15.125 11.890625 14.550781 12.476562 13.757812 12.871094 C 13.132812 13.179688 12.707031 13.28125 12 13.28125 C 11.292969 13.28125 10.867188 13.179688 10.242188 12.871094 C 9.449219 12.476562 8.875 11.890625 8.484375 11.085938 C 8.175781 10.449219 8.089844 10.085938 8.089844 9.398438 C 8.085938 8.722656 8.175781 8.304688 8.4375 7.742188 C 9.230469 6.0625 10.992188 5.15625 12.773438 5.527344 Z M 5.023438 12.023438 C 5.675781 12.289062 6.191406 12.382812 7.023438 12.394531 L 7.734375 12.398438 L 8.0625 12.78125 L 8.386719 13.164062 L 7.949219 13.476562 C 7.101562 14.078125 6.238281 15.089844 5.757812 16.046875 C 5.488281 16.578125 5.222656 17.421875 5.125 18.03125 L 5.042969 18.5625 L 1.3125 18.5625 L 1.3125 17.433594 C 1.3125 16.480469 1.328125 16.226562 1.40625 15.839844 C 1.738281 14.210938 2.703125 12.875 4.171875 12.019531 C 4.363281 11.90625 4.542969 11.820312 4.570312 11.832031 C 4.59375 11.84375 4.800781 11.929688 5.023438 12.023438 Z M 19.828125 12.019531 C 21.296875 12.875 22.261719 14.210938 22.59375 15.839844 C 22.671875 16.226562 22.6875 16.480469 22.6875 17.433594 L 22.6875 18.5625 L 18.957031 18.5625 L 18.875 18.03125 C 18.777344 17.421875 18.511719 16.578125 18.242188 16.046875 C 17.761719 15.089844 16.898438 14.078125 16.050781 13.476562 L 15.613281 13.167969 L 15.953125 12.769531 L 16.289062 12.371094 L 16.664062 12.398438 C 17.40625 12.460938 18.378906 12.289062 19.074219 11.980469 C 19.269531 11.890625 19.4375 11.820312 19.453125 11.816406 C 19.46875 11.8125 19.636719 11.90625 19.828125 12.019531 Z M 9.945312 14.15625 C 10.117188 14.234375 10.457031 14.351562 10.714844 14.421875 C 11.132812 14.535156 11.257812 14.550781 12 14.550781 C 12.742188 14.550781 12.867188 14.535156 13.285156 14.421875 C 13.539062 14.359375 13.890625 14.230469 14.0625 14.152344 C 14.269531 14.058594 14.421875 14.015625 14.492188 14.03125 C 14.554688 14.046875 14.792969 14.183594 15.023438 14.335938 C 16.320312 15.179688 17.136719 16.308594 17.515625 17.789062 C 17.625 18.214844 17.640625 18.367188 17.65625 19.484375 L 17.679688 20.71875 L 6.320312 20.71875 L 6.34375 19.484375 C 6.359375 18.367188 6.375 18.214844 6.484375 17.789062 C 6.867188 16.285156 7.714844 15.125 9.054688 14.28125 C 9.289062 14.136719 9.519531 14.015625 9.5625 14.015625 C 9.609375 14.015625 9.78125 14.082031 9.945312 14.15625 Z M 9.945312 14.15625 "/>
</g>
</svg>
