<?xml version="1.0" encoding="UTF-8"?>
<svg xmlns="http://www.w3.org/2000/svg" xmlns:xlink="http://www.w3.org/1999/xlink" width="24px" height="24px" viewBox="0 0 24 24" version="1.1">
<g id="surface1">
<path fill="currentColor" style="stroke:none;fill-rule:nonzero;" d="M 6.445312 0.796875 C 5.699219 0.953125 5.054688 1.429688 4.691406 2.105469 C 4.386719 2.679688 4.40625 2.011719 4.40625 12 C 4.40625 22.003906 4.386719 21.320312 4.695312 21.90625 C 4.996094 22.460938 5.523438 22.90625 6.125 23.117188 L 6.445312 23.226562 L 17.554688 23.226562 L 17.867188 23.117188 C 18.488281 22.902344 19 22.472656 19.304688 21.90625 C 19.613281 21.320312 19.59375 22.003906 19.59375 12 C 19.59375 1.992188 19.613281 2.679688 19.296875 2.09375 C 19.007812 1.542969 18.539062 1.140625 17.914062 0.894531 L 17.601562 0.773438 L 12.117188 0.765625 C 9.101562 0.765625 6.546875 0.777344 6.445312 0.796875 Z M 17.324219 3.0625 L 17.4375 3.191406 L 17.4375 20.808594 L 17.324219 20.9375 L 17.210938 21.070312 L 6.789062 21.070312 L 6.675781 20.9375 L 6.5625 20.808594 L 6.5625 12.007812 C 6.5625 4.003906 6.566406 3.195312 6.636719 3.101562 C 6.679688 3.042969 6.757812 2.976562 6.816406 2.953125 C 6.867188 2.929688 9.21875 2.914062 12.0625 2.921875 L 17.210938 2.929688 Z M 17.324219 3.0625 "/>
<path fill="currentColor" style="stroke:none;fill-rule:nonzero;" d="M 11.554688 18.042969 C 10.832031 18.375 10.703125 19.332031 11.300781 19.84375 C 12 20.441406 13.082031 19.945312 13.078125 19.027344 C 13.074219 18.589844 12.8125 18.191406 12.414062 18.027344 C 12.179688 17.929688 11.785156 17.933594 11.554688 18.042969 Z M 11.554688 18.042969 "/>
<path fill="currentColor" style="stroke:none;fill-rule:nonzero;" d="M 1.382812 3.769531 C 1.101562 3.898438 0.976562 4.03125 0.847656 4.3125 C 0.753906 4.523438 0.75 4.574219 0.75 12 L 0.75 19.476562 L 0.863281 19.710938 C 0.992188 19.992188 1.125 20.117188 1.40625 20.246094 C 1.9375 20.484375 2.578125 20.242188 2.816406 19.710938 C 2.902344 19.53125 2.90625 19.175781 2.90625 12 C 2.90625 4.824219 2.902344 4.46875 2.816406 4.289062 C 2.574219 3.746094 1.925781 3.511719 1.382812 3.769531 Z M 1.382812 3.769531 "/>
<path fill="currentColor" style="stroke:none;fill-rule:nonzero;" d="M 21.777344 3.726562 C 21.546875 3.804688 21.296875 4.046875 21.183594 4.289062 C 21.097656 4.46875 21.09375 4.773438 21.09375 12 C 21.09375 19.175781 21.097656 19.53125 21.183594 19.710938 C 21.421875 20.242188 22.0625 20.484375 22.59375 20.246094 C 22.875 20.117188 23.007812 19.992188 23.136719 19.710938 L 23.25 19.476562 L 23.25 4.523438 L 23.136719 4.289062 C 23.007812 4.007812 22.875 3.882812 22.59375 3.753906 C 22.351562 3.640625 22.039062 3.632812 21.777344 3.726562 Z M 21.777344 3.726562 "/>
</g>
</svg>
