<?xml version="1.0" encoding="UTF-8"?>
<svg xmlns="http://www.w3.org/2000/svg" xmlns:xlink="http://www.w3.org/1999/xlink" width="24px" height="24px" viewBox="0 0 24 24" version="1.1">
<g id="surface1">
<path fill="currentColor" style="stroke:none;fill-rule:nonzero;" d="M 2.984375 2.113281 C 1.664062 2.289062 0.554688 3.25 0.132812 4.59375 L 0.0234375 4.945312 L 0.0234375 19.054688 L 0.132812 19.40625 C 0.5625 20.78125 1.660156 21.710938 3.050781 21.886719 C 3.59375 21.957031 20.40625 21.957031 20.949219 21.886719 C 22.339844 21.710938 23.4375 20.78125 23.867188 19.40625 L 23.976562 19.054688 L 23.976562 4.945312 L 23.867188 4.59375 C 23.4375 3.21875 22.339844 2.289062 20.949219 2.113281 C 20.464844 2.054688 3.464844 2.054688 2.984375 2.113281 Z M 21.070312 3.542969 C 21.6875 3.699219 22.285156 4.257812 22.496094 4.878906 C 22.589844 5.160156 22.59375 5.265625 22.59375 6.847656 L 22.59375 8.527344 L 19.773438 8.546875 C 16.636719 8.5625 16.75 8.550781 16.046875 8.886719 C 14.019531 9.851562 13.449219 12.492188 14.890625 14.210938 C 15.332031 14.738281 15.980469 15.15625 16.664062 15.355469 C 16.917969 15.429688 17.242188 15.441406 19.773438 15.453125 L 22.59375 15.472656 L 22.59375 17.152344 C 22.59375 18.734375 22.589844 18.839844 22.496094 19.121094 C 22.359375 19.519531 22.03125 19.941406 21.664062 20.183594 C 21.109375 20.558594 21.84375 20.53125 12 20.53125 C 2.15625 20.53125 2.890625 20.558594 2.335938 20.183594 C 1.96875 19.941406 1.640625 19.519531 1.503906 19.121094 L 1.40625 18.824219 L 1.40625 5.175781 L 1.503906 4.878906 C 1.710938 4.273438 2.277344 3.730469 2.878906 3.558594 C 3.144531 3.484375 3.726562 3.472656 11.96875 3.472656 C 19.929688 3.46875 20.796875 3.476562 21.070312 3.542969 Z M 22.59375 12 L 22.59375 14.0625 L 19.90625 14.0625 C 17.652344 14.0625 17.179688 14.054688 16.984375 13.992188 C 16.210938 13.761719 15.640625 13.125 15.507812 12.328125 C 15.332031 11.320312 15.964844 10.316406 16.964844 10.011719 C 17.136719 9.957031 17.691406 9.941406 19.890625 9.941406 L 22.59375 9.9375 Z M 22.59375 12 "/>
<path fill="currentColor" style="stroke:none;fill-rule:nonzero;" d="M 17.320312 11.34375 C 16.859375 11.484375 16.707031 12.121094 17.042969 12.472656 C 17.226562 12.664062 17.464844 12.710938 18.121094 12.695312 C 18.613281 12.683594 18.71875 12.664062 18.824219 12.582031 C 19.058594 12.40625 19.132812 12.261719 19.132812 12 C 19.132812 11.738281 19.058594 11.59375 18.824219 11.417969 C 18.710938 11.335938 18.617188 11.320312 18.078125 11.3125 C 17.738281 11.304688 17.394531 11.320312 17.320312 11.34375 Z M 17.320312 11.34375 "/>
</g>
</svg>
