<svg width="655" height="614" viewBox="0 0 655 614" fill="none" xmlns="http://www.w3.org/2000/svg">
<path d="M342.8 64.1646L340.5 66.5646V180.365C340.5 258.565 340.8 294.665 341.6 296.065C343.9 300.365 345.6 300.265 390.8 292.965C566.6 264.765 570.8 263.965 573.2 261.765C574.6 260.465 575.5 258.465 575.5 256.765C575.5 251.365 571.3 233.565 567 220.465C539.9 137.965 470.8 78.9646 384.5 64.4646C379.3 63.5646 368.3 62.5646 360 62.2646C345.1 61.7646 345 61.7646 342.8 64.1646Z" fill-opacity="0.3"/>
<path d="M284 98.6645C267 100.164 244.2 104.964 228 110.664C214.5 115.364 190.1 127.364 178.5 134.964C143.4 157.964 115.7 189.264 97.4 226.464C86.2 249.164 79.8 269.864 75.8 295.464C73.4 310.964 73.4 345.264 75.8 360.964C80.7 392.264 90.4 419.764 105.7 445.464C142.4 506.864 203.7 547.064 274.8 556.464C288.2 558.164 315.6 558.464 329 556.964C364.3 552.964 399.5 540.464 428.8 521.364C438.8 514.764 441.2 511.864 439.9 507.564C439.5 506.464 410.5 464.864 375.4 415.264L311.5 325.164V213.664V102.064L308.9 100.064C306.6 98.2645 305 97.9645 297.1 98.1645C292.1 98.2645 286.2 98.4645 284 98.6645Z" fill="currentColor"/>
<path d="M462.5 304.964C402.8 314.664 353.1 322.964 351.9 323.264C349.1 324.264 347.1 328.164 347.7 331.664C348.2 334.764 473.7 512.664 478.6 517.164C480.2 518.764 482.6 519.964 483.9 519.964C487.1 519.964 501.6 508.764 514.7 496.064C546.1 465.764 567.5 428.964 578.1 387.364C583.5 365.864 584.9 354.164 584.9 330.464C585 296.364 582.6 286.764 574.3 287.064C572.5 287.164 522.2 295.164 462.5 304.964Z" fill-opacity="0.6"/>
</svg>
