<svg width="41" height="50" viewBox="0 0 41 50" fill="none" xmlns="http://www.w3.org/2000/svg">
<g clip-path="url(#clip0_50_41)">
<path d="M19.2299 8.972C22.5489 13.172 27.101 4.372 27.095 0C24.895 3.428 16.1949 4.736 19.2299 8.972Z" fill="white"/>
<path d="M8.45699 4.99299C10.49 6.98399 5.581 8.89299 3.271 8.64399C5.207 7.67599 6.38899 3.14999 8.45699 4.99299Z" fill="white"/>
<path d="M15.452 24.819C13.952 30.558 5.41495 23.651 3.47595 19.211C7.23195 21.711 16.647 19.168 15.452 24.819Z" fill="white"/>
<path d="M17.295 11.154C17.538 8.67799 19.521 8.62699 20.702 6.43899C18.957 8.41799 17.444 8.43299 16.851 10.494C15.2082 8.17769 12.9593 6.35853 10.351 5.23599L10.2509 5.17899H10.235C10.135 5.13799 10.0489 5.08999 9.95094 5.04999C10.0239 5.09799 10.0889 5.14999 10.1609 5.19899C9.51395 5.35599 9.27595 5.91299 8.68195 6.15099C9.37295 5.96699 9.60595 5.37999 10.368 5.34399C17.087 10.004 18.7149 17.639 18.8219 23.53C17.0509 21.83 15.3 22.53 12.291 21.288C14.85 23.116 17.1399 22.138 18.8259 24.622C18.8083 27.064 18.5362 29.4974 18.0139 31.883H20.7739C20.7739 31.883 22.7409 19.519 17.3009 11.15" fill="white"/>
<path d="M40.212 49.288H0.000976562C0.000976562 41.315 9.00096 34.851 20.107 34.851C31.213 34.851 40.213 41.315 40.213 49.288" fill="white"/>
<path d="M14.755 45.163C14.755 45.948 13.59 46.584 12.155 46.584C10.72 46.584 9.55499 45.948 9.55499 45.163C9.55499 44.378 10.72 43.743 12.155 43.743C13.59 43.743 14.755 44.379 14.755 45.163" fill="white"/>
<path d="M28.805 41.604C28.805 42.785 27.405 43.743 25.669 43.743C23.933 43.743 22.533 42.785 22.533 41.604C22.533 40.423 23.933 39.465 25.669 39.465C27.405 39.465 28.805 40.423 28.805 41.604Z" fill="white"/>
</g>
<defs>
<clipPath id="clip0_50_41">
<rect width="40.211" height="49.287" fill="white"/>
</clipPath>
</defs>
</svg>
