<svg width="15" height="13" viewBox="0 0 15 13" fill="none" xmlns="http://www.w3.org/2000/svg">
<path d="M7.17266 2.36628C8.41072 3.47399 10.1088 1.15307 10.1065 0C9.28587 0.904101 6.04053 1.24907 7.17266 2.36628Z" fill="white" fill-opacity="0.85"/>
<path d="M3.15324 1.31684C3.9116 1.84195 2.08043 2.34543 1.21875 2.27975C1.94092 2.02445 2.38183 0.830765 3.15324 1.31684Z" fill="white" fill-opacity="0.85"/>
<path d="M5.76421 6.54595C5.20468 8.05955 2.02017 6.2379 1.29688 5.06689C2.69795 5.72624 6.20998 5.05555 5.76421 6.54595Z" fill="white" fill-opacity="0.85"/>
<path d="M6.45114 2.94093C6.54179 2.2879 7.28149 2.27445 7.72203 1.69739C7.07111 2.21933 6.50672 2.22329 6.28552 2.76686C5.67272 2.15596 4.83383 1.67617 3.86087 1.38011L3.82354 1.36508H3.8176C3.7803 1.35426 3.74818 1.3416 3.71164 1.33105C3.73886 1.34371 3.76311 1.35743 3.78996 1.37035C3.54864 1.41176 3.45986 1.55866 3.23828 1.62143C3.49604 1.5729 3.58295 1.41809 3.86722 1.40859C6.37356 2.63763 6.9808 4.65128 7.02071 6.20498C6.36009 5.75662 5.70696 5.94124 4.58454 5.61367C5.5391 6.09579 6.39329 5.83785 7.0222 6.49298C7.01564 7.13703 6.91414 7.77882 6.71931 8.408H7.74885C7.74885 8.408 8.48259 5.14711 6.45335 2.93987" fill="white" fill-opacity="0.85"/>
<path d="M14.9996 13H0C0 10.8972 3.3572 9.19238 7.5 9.19238C11.6428 9.19238 15 10.8972 15 13" fill="white"/>
<path d="M5.50222 11.9116C5.50222 12.1187 5.06765 12.2864 4.53236 12.2864C3.99708 12.2864 3.5625 12.1187 3.5625 11.9116C3.5625 11.7046 3.99708 11.5371 4.53236 11.5371C5.06765 11.5371 5.50222 11.7048 5.50222 11.9116Z" fill="white" fill-opacity="0.85"/>
<path d="M10.7449 10.9723C10.7449 11.2838 10.2226 11.5365 9.57507 11.5365C8.92751 11.5365 8.40527 11.2838 8.40527 10.9723C8.40527 10.6609 8.92751 10.4082 9.57507 10.4082C10.2226 10.4082 10.7449 10.6609 10.7449 10.9723Z" fill="white" fill-opacity="0.85"/>
</svg>
