<svg width="20" height="21" viewBox="0 0 20 21" fill="none" xmlns="http://www.w3.org/2000/svg">
<path d="M9.56322 3.82254C11.214 5.61196 13.478 1.8627 13.475 0C12.3808 1.46051 8.05372 2.01778 9.56322 3.82254Z" fill="#28A745"/>
<path d="M4.20432 2.12747C5.21547 2.97574 2.77391 3.78907 1.625 3.68299C2.5879 3.27057 3.17577 1.34225 4.20432 2.12747Z" fill="#28A745"/>
<path d="M7.68594 10.5744C6.9399 13.0195 2.69388 10.0767 1.72949 8.18506C3.59759 9.25019 8.28029 8.16674 7.68594 10.5744Z" fill="#28A745"/>
<path d="M8.6012 4.75102C8.72206 3.69611 9.70833 3.67438 10.2957 2.74218C9.42782 3.58534 8.67531 3.59173 8.38037 4.46983C7.5633 3.48296 6.44478 2.7079 5.14751 2.22964L5.09772 2.20535H5.08981C5.04008 2.18788 4.99725 2.16743 4.94853 2.15039C4.98482 2.17084 5.01715 2.193 5.05296 2.21387C4.73119 2.28076 4.61282 2.51807 4.31738 2.61947C4.66106 2.54108 4.77695 2.29099 5.15596 2.27565C8.49775 4.26106 9.30741 7.51397 9.36062 10.0238C8.47979 9.29956 7.60896 9.59779 6.11239 9.06864C7.38515 9.84746 8.52406 9.43078 9.36261 10.4891C9.35386 11.5295 9.21853 12.5663 8.95876 13.5827H10.3315C10.3315 13.5827 11.3098 8.31495 8.60413 4.74932" fill="#28A745"/>
<path d="M19.9995 21.0005H0C0 17.6036 4.47626 14.8496 10 14.8496C15.5237 14.8496 20 17.6036 20 21.0005" fill="#28A745"/>
<path d="M7.3363 19.2422C7.3363 19.5767 6.75687 19.8476 6.04315 19.8476C5.32943 19.8476 4.75 19.5767 4.75 19.2422C4.75 18.9077 5.32943 18.6372 6.04315 18.6372C6.75687 18.6372 7.3363 18.9082 7.3363 19.2422Z" fill="#28A745"/>
<path d="M14.3265 17.7248C14.3265 18.228 13.6302 18.6361 12.7668 18.6361C11.9033 18.6361 11.207 18.228 11.207 17.7248C11.207 17.2216 11.9033 16.8135 12.7668 16.8135C13.6302 16.8135 14.3265 17.2216 14.3265 17.7248Z" fill="#28A745"/>
</svg>
