<svg width="29" height="29" viewBox="0 0 29 29" fill="none" xmlns="http://www.w3.org/2000/svg">
<circle cx="14.5" cy="14.5" r="14.5" fill="#D9F3DF"/>
<path d="M14.6504 9.54831C15.971 10.7412 17.7822 8.24178 17.7798 7C16.9045 7.97365 13.4428 8.34516 14.6504 9.54831Z" fill="#28A745"/>
<path d="M10.3642 8.41798C11.1732 8.98349 9.21991 9.5257 8.30078 9.45498C9.0711 9.18004 9.5414 7.89452 10.3642 8.41798Z" fill="#28A745"/>
<path d="M13.149 14.0494C12.5521 15.6794 9.1553 13.7176 8.38379 12.4565C9.87827 13.1666 13.6244 12.4443 13.149 14.0494Z" fill="#28A745"/>
<path d="M13.8812 10.1678C13.9778 9.46454 14.7669 9.45006 15.2368 8.8286C14.5425 9.39069 13.9404 9.39495 13.7045 9.98034C13.0508 9.32244 12.156 8.80575 11.1182 8.48691L11.0784 8.47072H11.072C11.0323 8.45908 10.998 8.44544 10.959 8.43408C10.9881 8.44772 11.0139 8.46248 11.0426 8.4764C10.7851 8.521 10.6904 8.6792 10.4541 8.7468C10.729 8.69454 10.8218 8.52781 11.125 8.51759C13.7984 9.84117 14.4461 12.0097 14.4887 13.683C13.784 13.2001 13.0874 13.3989 11.8901 13.0462C12.9083 13.5654 13.8194 13.2876 14.4903 13.9931C14.4833 14.6867 14.375 15.3779 14.1672 16.0555H15.2654C15.2654 16.0555 16.048 12.5437 13.8835 10.1667" fill="#28A745"/>
<path d="M22.9996 20.9999H7C7 18.7354 10.581 16.8994 15 16.8994C19.419 16.8994 23 18.7354 23 20.9999" fill="#28A745"/>
<path d="M12.8698 19.8276C12.8698 20.0506 12.4063 20.2312 11.8353 20.2312C11.2643 20.2312 10.8008 20.0506 10.8008 19.8276C10.8008 19.6047 11.2643 19.4243 11.8353 19.4243C12.4063 19.4243 12.8698 19.605 12.8698 19.8276Z" fill="#28A745"/>
<path d="M18.4614 18.8165C18.4614 19.152 17.9043 19.4241 17.2136 19.4241C16.5229 19.4241 15.9658 19.152 15.9658 18.8165C15.9658 18.4811 16.5229 18.209 17.2136 18.209C17.9043 18.209 18.4614 18.4811 18.4614 18.8165Z" fill="#28A745"/>
</svg>
