<svg width="19" height="17" viewBox="0 0 19 17" fill="none" xmlns="http://www.w3.org/2000/svg">
<path d="M9.17266 4.36628C10.4107 5.47399 12.1088 3.15307 12.1065 2C11.2859 2.9041 8.04053 3.24907 9.17266 4.36628Z" fill="#7332FE" fill-opacity="0.4"/>
<path d="M5.15324 3.31684C5.9116 3.84195 4.08043 4.34543 3.21875 4.27975C3.94092 4.02445 4.38183 2.83077 5.15324 3.31684Z" fill="#7332FE" fill-opacity="0.4"/>
<path d="M7.76421 8.54595C7.20468 10.0596 4.02017 8.2379 3.29688 7.06689C4.69795 7.72624 8.20998 7.05555 7.76421 8.54595Z" fill="#7332FE" fill-opacity="0.4"/>
<path d="M8.45114 4.94093C8.54179 4.2879 9.28149 4.27445 9.72203 3.69739C9.07111 4.21933 8.50672 4.22329 8.28552 4.76686C7.67272 4.15596 6.83383 3.67617 5.86087 3.38011L5.82354 3.36508H5.8176C5.7803 3.35426 5.74818 3.3416 5.71164 3.33105C5.73886 3.34371 5.76311 3.35743 5.78996 3.37035C5.54864 3.41176 5.45986 3.55866 5.23828 3.62143C5.49604 3.5729 5.58295 3.41809 5.86722 3.40859C8.37356 4.63763 8.9808 6.65128 9.02071 8.20498C8.36009 7.75662 7.70696 7.94124 6.58454 7.61367C7.5391 8.09579 8.39329 7.83785 9.0222 8.49298C9.01564 9.13703 8.91414 9.77882 8.71931 10.408H9.74885C9.74885 10.408 10.4826 7.14711 8.45335 4.93987" fill="#7332FE"/>
<path d="M16.9996 15H2C2 12.8972 5.3572 11.1924 9.5 11.1924C13.6428 11.1924 17 12.8972 17 15" fill="#7332FE"/>
<path d="M7.50222 13.9116C7.50222 14.1187 7.06765 14.2864 6.53236 14.2864C5.99708 14.2864 5.5625 14.1187 5.5625 13.9116C5.5625 13.7046 5.99708 13.5371 6.53236 13.5371C7.06765 13.5371 7.50222 13.7048 7.50222 13.9116Z" fill="#7332FE"/>
<path d="M12.7449 12.9723C12.7449 13.2838 12.2226 13.5365 11.5751 13.5365C10.9275 13.5365 10.4053 13.2838 10.4053 12.9723C10.4053 12.6609 10.9275 12.4082 11.5751 12.4082C12.2226 12.4082 12.7449 12.6609 12.7449 12.9723Z" fill="#7332FE"/>
<rect x="0.4" y="0.4" width="18.2" height="16.2" rx="1.6" stroke="#7332FE" stroke-width="0.8"/>
</svg>
