<svg width="169" height="25" viewBox="0 0 169 25" fill="none" xmlns="http://www.w3.org/2000/svg">
<path d="M9.56322 3.82254C11.214 5.61196 13.478 1.8627 13.475 0C12.3808 1.46051 8.05372 2.01778 9.56322 3.82254Z" fill="#102A43"/>
<path d="M4.20432 2.12747C5.21547 2.97574 2.77391 3.78907 1.625 3.68299C2.5879 3.27057 3.17577 1.34225 4.20432 2.12747Z" fill="#102A43"/>
<path d="M7.68594 10.5744C6.9399 13.0195 2.69388 10.0767 1.72949 8.18506C3.59759 9.25019 8.28029 8.16674 7.68594 10.5744Z" fill="#102A43"/>
<path d="M8.6012 4.75102C8.72206 3.69611 9.70833 3.67438 10.2957 2.74218C9.42782 3.58534 8.67531 3.59173 8.38037 4.46983C7.5633 3.48296 6.44478 2.7079 5.14751 2.22964L5.09772 2.20535H5.08981C5.04008 2.18788 4.99725 2.16743 4.94853 2.15039C4.98482 2.17084 5.01715 2.193 5.05296 2.21387C4.73119 2.28076 4.61282 2.51807 4.31738 2.61947C4.66106 2.54108 4.77695 2.29099 5.15596 2.27565C8.49775 4.26106 9.30741 7.51397 9.36062 10.0238C8.47979 9.29956 7.60896 9.59779 6.11239 9.06864C7.38515 9.84746 8.52406 9.43078 9.36261 10.4891C9.35386 11.5295 9.21853 12.5663 8.95876 13.5827H10.3315C10.3315 13.5827 11.3098 8.31495 8.60413 4.74932" fill="#102A43"/>
<path d="M19.9995 21.0005H0C0 17.6036 4.47626 14.8496 10 14.8496C15.5237 14.8496 20 17.6036 20 21.0005" fill="#102A43"/>
<path d="M7.3363 19.2422C7.3363 19.5767 6.75687 19.8476 6.04315 19.8476C5.32943 19.8476 4.75 19.5767 4.75 19.2422C4.75 18.9077 5.32943 18.6372 6.04315 18.6372C6.75687 18.6372 7.3363 18.9082 7.3363 19.2422Z" fill="#102A43"/>
<path d="M14.3265 17.7248C14.3265 18.228 13.6302 18.6361 12.7668 18.6361C11.9033 18.6361 11.207 18.228 11.207 17.7248C11.207 17.2216 11.9033 16.8135 12.7668 16.8135C13.6302 16.8135 14.3265 17.2216 14.3265 17.7248Z" fill="#102A43"/>
<path d="M31.06 20.16C30.14 20.16 29.2533 20.0533 28.4 19.84C27.56 19.6133 26.8933 19.3333 26.4 19L27.44 16.76C27.9333 17.0667 28.5133 17.32 29.18 17.52C29.86 17.7067 30.5267 17.8 31.18 17.8C31.9 17.8 32.4067 17.7133 32.7 17.54C33.0067 17.3667 33.16 17.1267 33.16 16.82C33.16 16.5667 33.04 16.38 32.8 16.26C32.5733 16.1267 32.2667 16.0267 31.88 15.96C31.4933 15.8933 31.0667 15.8267 30.6 15.76C30.1467 15.6933 29.6867 15.6067 29.22 15.5C28.7533 15.38 28.3267 15.2067 27.94 14.98C27.5533 14.7533 27.24 14.4467 27 14.06C26.7733 13.6733 26.66 13.1733 26.66 12.56C26.66 11.88 26.8533 11.28 27.24 10.76C27.64 10.24 28.2133 9.83333 28.96 9.54C29.7067 9.23333 30.6 9.08 31.64 9.08C32.3733 9.08 33.12 9.16 33.88 9.32C34.64 9.48 35.2733 9.71333 35.78 10.02L34.74 12.24C34.22 11.9333 33.6933 11.7267 33.16 11.62C32.64 11.5 32.1333 11.44 31.64 11.44C30.9467 11.44 30.44 11.5333 30.12 11.72C29.8 11.9067 29.64 12.1467 29.64 12.44C29.64 12.7067 29.7533 12.9067 29.98 13.04C30.22 13.1733 30.5333 13.28 30.92 13.36C31.3067 13.44 31.7267 13.5133 32.18 13.58C32.6467 13.6333 33.1133 13.72 33.58 13.84C34.0467 13.96 34.4667 14.1333 34.84 14.36C35.2267 14.5733 35.54 14.8733 35.78 15.26C36.02 15.6333 36.14 16.1267 36.14 16.74C36.14 17.4067 35.94 18 35.54 18.52C35.14 19.0267 34.56 19.4267 33.8 19.72C33.0533 20.0133 32.14 20.16 31.06 20.16ZM43.405 20.16C42.1783 20.16 41.0983 19.92 40.165 19.44C39.245 18.96 38.5317 18.3067 38.025 17.48C37.5183 16.64 37.265 15.6867 37.265 14.62C37.265 13.54 37.5117 12.5867 38.005 11.76C38.5117 10.92 39.1983 10.2667 40.065 9.8C40.9317 9.32 41.9117 9.08 43.005 9.08C44.0583 9.08 45.005 9.30667 45.845 9.76C46.6983 10.2 47.3717 10.84 47.865 11.68C48.3583 12.5067 48.605 13.5 48.605 14.66C48.605 14.78 48.5983 14.92 48.585 15.08C48.5717 15.2267 48.5583 15.3667 48.545 15.5H39.805V13.68H46.905L45.705 14.22C45.705 13.66 45.5917 13.1733 45.365 12.76C45.1383 12.3467 44.825 12.0267 44.425 11.8C44.025 11.56 43.5583 11.44 43.025 11.44C42.4917 11.44 42.0183 11.56 41.605 11.8C41.205 12.0267 40.8917 12.3533 40.665 12.78C40.4383 13.1933 40.325 13.6867 40.325 14.26V14.74C40.325 15.3267 40.4517 15.8467 40.705 16.3C40.9717 16.74 41.3383 17.08 41.805 17.32C42.285 17.5467 42.845 17.66 43.485 17.66C44.0583 17.66 44.5583 17.5733 44.985 17.4C45.425 17.2267 45.825 16.9667 46.185 16.62L47.845 18.42C47.3517 18.98 46.7317 19.4133 45.985 19.72C45.2383 20.0133 44.3783 20.16 43.405 20.16ZM56.0222 20.16C54.7955 20.16 53.7155 19.92 52.7822 19.44C51.8622 18.96 51.1489 18.3067 50.6422 17.48C50.1355 16.64 49.8822 15.6867 49.8822 14.62C49.8822 13.54 50.1289 12.5867 50.6222 11.76C51.1289 10.92 51.8155 10.2667 52.6822 9.8C53.5489 9.32 54.5289 9.08 55.6222 9.08C56.6755 9.08 57.6222 9.30667 58.4622 9.76C59.3155 10.2 59.9889 10.84 60.4822 11.68C60.9755 12.5067 61.2222 13.5 61.2222 14.66C61.2222 14.78 61.2155 14.92 61.2022 15.08C61.1889 15.2267 61.1755 15.3667 61.1622 15.5H52.4222V13.68H59.5222L58.3222 14.22C58.3222 13.66 58.2089 13.1733 57.9822 12.76C57.7555 12.3467 57.4422 12.0267 57.0422 11.8C56.6422 11.56 56.1755 11.44 55.6422 11.44C55.1089 11.44 54.6355 11.56 54.2222 11.8C53.8222 12.0267 53.5089 12.3533 53.2822 12.78C53.0555 13.1933 52.9422 13.6867 52.9422 14.26V14.74C52.9422 15.3267 53.0689 15.8467 53.3222 16.3C53.5889 16.74 53.9555 17.08 54.4222 17.32C54.9022 17.5467 55.4622 17.66 56.1022 17.66C56.6755 17.66 57.1755 17.5733 57.6022 17.4C58.0422 17.2267 58.4422 16.9667 58.8022 16.62L60.4622 18.42C59.9689 18.98 59.3489 19.4133 58.6022 19.72C57.8555 20.0133 56.9955 20.16 56.0222 20.16ZM67.9194 20.16C66.906 20.16 65.9927 19.9333 65.1794 19.48C64.366 19.0133 63.7194 18.3667 63.2394 17.54C62.7727 16.7133 62.5394 15.74 62.5394 14.62C62.5394 13.4867 62.7727 12.5067 63.2394 11.68C63.7194 10.8533 64.366 10.2133 65.1794 9.76C65.9927 9.30667 66.906 9.08 67.9194 9.08C68.826 9.08 69.6194 9.28 70.2994 9.68C70.9794 10.08 71.506 10.6867 71.8794 11.5C72.2527 12.3133 72.4394 13.3533 72.4394 14.62C72.4394 15.8733 72.2594 16.9133 71.8994 17.74C71.5394 18.5533 71.0194 19.16 70.3394 19.56C69.6727 19.96 68.866 20.16 67.9194 20.16ZM68.4594 17.6C68.966 17.6 69.426 17.48 69.8394 17.24C70.2527 17 70.5794 16.66 70.8194 16.22C71.0727 15.7667 71.1994 15.2333 71.1994 14.62C71.1994 13.9933 71.0727 13.46 70.8194 13.02C70.5794 12.58 70.2527 12.24 69.8394 12C69.426 11.76 68.966 11.64 68.4594 11.64C67.9394 11.64 67.4727 11.76 67.0594 12C66.646 12.24 66.3127 12.58 66.0594 13.02C65.8194 13.46 65.6994 13.9933 65.6994 14.62C65.6994 15.2333 65.8194 15.7667 66.0594 16.22C66.3127 16.66 66.646 17 67.0594 17.24C67.4727 17.48 67.9394 17.6 68.4594 17.6ZM71.2794 20V17.8L71.3394 14.6L71.1394 11.42V5.16H74.2594V20H71.2794ZM88.7711 20.1C87.8644 20.1 87.0444 19.8933 86.3111 19.48C85.5778 19.0533 84.9911 18.4467 84.5511 17.66C84.1244 16.86 83.9111 15.8867 83.9111 14.74C83.9111 13.5933 84.1244 12.6267 84.5511 11.84C84.9778 11.04 85.5578 10.4333 86.2911 10.02C87.0244 9.60667 87.8511 9.4 88.7711 9.4C89.7711 9.4 90.6644 9.62667 91.4511 10.08C92.2511 10.52 92.8778 11.1467 93.3311 11.96C93.7844 12.76 94.0111 13.6867 94.0111 14.74C94.0111 15.8067 93.7844 16.74 93.3311 17.54C92.8778 18.34 92.2511 18.9667 91.4511 19.42C90.6644 19.8733 89.7711 20.1 88.7711 20.1ZM83.3511 23.88V9.5H84.7111V12.66L84.5711 14.76L84.7711 16.88V23.88H83.3511ZM88.6711 18.84C89.4178 18.84 90.0844 18.6733 90.6711 18.34C91.2578 17.9933 91.7244 17.5133 92.0711 16.9C92.4178 16.2733 92.5911 15.5533 92.5911 14.74C92.5911 13.9267 92.4178 13.2133 92.0711 12.6C91.7244 11.9867 91.2578 11.5067 90.6711 11.16C90.0844 10.8133 89.4178 10.64 88.6711 10.64C87.9244 10.64 87.2511 10.8133 86.6511 11.16C86.0644 11.5067 85.5978 11.9867 85.2511 12.6C84.9178 13.2133 84.7511 13.9267 84.7511 14.74C84.7511 15.5533 84.9178 16.2733 85.2511 16.9C85.5978 17.5133 86.0644 17.9933 86.6511 18.34C87.2511 18.6733 87.9244 18.84 88.6711 18.84ZM96.9058 20V5.16H98.3258V20H96.9058ZM108.857 20V17.68L108.797 17.3V13.42C108.797 12.5267 108.544 11.84 108.037 11.36C107.544 10.88 106.804 10.64 105.817 10.64C105.137 10.64 104.49 10.7533 103.877 10.98C103.264 11.2067 102.744 11.5067 102.317 11.88L101.677 10.82C102.21 10.3667 102.85 10.02 103.597 9.78C104.344 9.52667 105.13 9.4 105.957 9.4C107.317 9.4 108.364 9.74 109.097 10.42C109.844 11.0867 110.217 12.1067 110.217 13.48V20H108.857ZM105.237 20.1C104.45 20.1 103.764 19.9733 103.177 19.72C102.604 19.4533 102.164 19.0933 101.857 18.64C101.55 18.1733 101.397 17.64 101.397 17.04C101.397 16.4933 101.524 16 101.777 15.56C102.044 15.1067 102.47 14.7467 103.057 14.48C103.657 14.2 104.457 14.06 105.457 14.06H109.077V15.12H105.497C104.484 15.12 103.777 15.3 103.377 15.66C102.99 16.02 102.797 16.4667 102.797 17C102.797 17.6 103.03 18.08 103.497 18.44C103.964 18.8 104.617 18.98 105.457 18.98C106.257 18.98 106.944 18.8 107.517 18.44C108.104 18.0667 108.53 17.5333 108.797 16.84L109.117 17.82C108.85 18.5133 108.384 19.0667 107.717 19.48C107.064 19.8933 106.237 20.1 105.237 20.1ZM117.394 20.1C116.407 20.1 115.647 19.8333 115.114 19.3C114.58 18.7667 114.314 18.0133 114.314 17.04V7.18H115.734V16.96C115.734 17.5733 115.887 18.0467 116.194 18.38C116.514 18.7133 116.967 18.88 117.554 18.88C118.18 18.88 118.7 18.7 119.114 18.34L119.614 19.36C119.334 19.6133 118.994 19.8 118.594 19.92C118.207 20.04 117.807 20.1 117.394 20.1ZM112.434 10.68V9.5H118.934V10.68H112.434ZM122.439 20V8.18C122.439 7.24667 122.712 6.49333 123.259 5.92C123.805 5.34667 124.592 5.06 125.619 5.06C126.019 5.06 126.405 5.11333 126.779 5.22C127.152 5.32667 127.465 5.49333 127.719 5.72L127.239 6.78C127.039 6.60667 126.805 6.48 126.539 6.4C126.272 6.30667 125.985 6.26 125.679 6.26C125.079 6.26 124.619 6.42667 124.299 6.76C123.979 7.09333 123.819 7.58667 123.819 8.24V9.84L123.859 10.5V20H122.439ZM120.559 10.68V9.5H127.059V10.68H120.559ZM133.08 20.1C132.067 20.1 131.154 19.8733 130.34 19.42C129.54 18.9533 128.907 18.32 128.44 17.52C127.974 16.7067 127.74 15.78 127.74 14.74C127.74 13.6867 127.974 12.76 128.44 11.96C128.907 11.16 129.54 10.5333 130.34 10.08C131.14 9.62667 132.054 9.4 133.08 9.4C134.12 9.4 135.04 9.62667 135.84 10.08C136.654 10.5333 137.287 11.16 137.74 11.96C138.207 12.76 138.44 13.6867 138.44 14.74C138.44 15.78 138.207 16.7067 137.74 17.52C137.287 18.32 136.654 18.9533 135.84 19.42C135.027 19.8733 134.107 20.1 133.08 20.1ZM133.08 18.84C133.84 18.84 134.514 18.6733 135.1 18.34C135.687 17.9933 136.147 17.5133 136.48 16.9C136.827 16.2733 137 15.5533 137 14.74C137 13.9133 136.827 13.1933 136.48 12.58C136.147 11.9667 135.687 11.4933 135.1 11.16C134.514 10.8133 133.847 10.64 133.1 10.64C132.354 10.64 131.687 10.8133 131.1 11.16C130.514 11.4933 130.047 11.9667 129.7 12.58C129.354 13.1933 129.18 13.9133 129.18 14.74C129.18 15.5533 129.354 16.2733 129.7 16.9C130.047 17.5133 130.514 17.9933 131.1 18.34C131.687 18.6733 132.347 18.84 133.08 18.84ZM141.339 20V9.5H142.699V12.36L142.559 11.86C142.853 11.06 143.346 10.4533 144.039 10.04C144.733 9.61333 145.593 9.4 146.619 9.4V10.78C146.566 10.78 146.513 10.78 146.459 10.78C146.406 10.7667 146.353 10.76 146.299 10.76C145.193 10.76 144.326 11.1 143.699 11.78C143.073 12.4467 142.759 13.4 142.759 14.64V20H141.339ZM162.33 9.4C163.184 9.4 163.924 9.56667 164.55 9.9C165.19 10.22 165.684 10.7133 166.03 11.38C166.39 12.0467 166.57 12.8867 166.57 13.9V20H165.15V14.04C165.15 12.9333 164.884 12.1 164.35 11.54C163.83 10.9667 163.09 10.68 162.13 10.68C161.41 10.68 160.784 10.8333 160.25 11.14C159.73 11.4333 159.324 11.8667 159.03 12.44C158.75 13 158.61 13.68 158.61 14.48V20H157.19V14.04C157.19 12.9333 156.924 12.1 156.39 11.54C155.857 10.9667 155.11 10.68 154.15 10.68C153.444 10.68 152.824 10.8333 152.29 11.14C151.757 11.4333 151.344 11.8667 151.05 12.44C150.77 13 150.63 13.68 150.63 14.48V20H149.21V9.5H150.57V12.34L150.35 11.84C150.67 11.08 151.184 10.4867 151.89 10.06C152.61 9.62 153.457 9.4 154.43 9.4C155.457 9.4 156.33 9.66 157.05 10.18C157.77 10.6867 158.237 11.4533 158.45 12.48L157.89 12.26C158.197 11.4067 158.737 10.72 159.51 10.2C160.297 9.66667 161.237 9.4 162.33 9.4Z" fill="#102A43"/>
</svg>
