<?xml version="1.0" encoding="UTF-8"?>
<svg xmlns="http://www.w3.org/2000/svg" xmlns:xlink="http://www.w3.org/1999/xlink" width="128px" height="95px" viewBox="0 0 127 95" version="1.1">
<g id="surface1">
<path style=" stroke:none;fill-rule:nonzero;fill:rgb(90.588235%,90.980392%,89.803922%);fill-opacity:1;" d="M 0 83.519531 L 126.9375 83.519531 L 126.9375 83.453125 L 0 83.453125 Z M 0 83.519531 "/>
<path style=" stroke:none;fill-rule:nonzero;fill:rgb(90.588235%,90.980392%,89.803922%);fill-opacity:1;" d="M 105.808594 87.554688 L 114.21875 87.554688 L 114.21875 87.621094 L 105.808594 87.621094 L 105.808594 87.554688 "/>
<path style=" stroke:none;fill-rule:nonzero;fill:rgb(90.588235%,90.980392%,89.803922%);fill-opacity:1;" d="M 81.882812 88.246094 L 84.085938 88.246094 L 84.085938 88.3125 L 81.882812 88.3125 L 81.882812 88.246094 "/>
<path style=" stroke:none;fill-rule:nonzero;fill:rgb(90.588235%,90.980392%,89.803922%);fill-opacity:1;" d="M 100.683594 85.1875 L 105.554688 85.1875 L 105.554688 85.253906 L 100.683594 85.253906 L 100.683594 85.1875 "/>
<path style=" stroke:none;fill-rule:nonzero;fill:rgb(90.588235%,90.980392%,89.803922%);fill-opacity:1;" d="M 13.316406 85.617188 L 24.285156 85.617188 L 24.285156 85.679688 L 13.316406 85.679688 L 13.316406 85.617188 "/>
<path style=" stroke:none;fill-rule:nonzero;fill:rgb(90.588235%,90.980392%,89.803922%);fill-opacity:1;" d="M 26.542969 85.617188 L 28.152344 85.617188 L 28.152344 85.679688 L 26.542969 85.679688 L 26.542969 85.617188 "/>
<path style=" stroke:none;fill-rule:nonzero;fill:rgb(90.588235%,90.980392%,89.803922%);fill-opacity:1;" d="M 33.375 86.757812 L 57.160156 86.757812 L 57.160156 86.695312 L 33.375 86.695312 Z M 33.375 86.757812 "/>
<path style=" stroke:none;fill-rule:nonzero;fill:rgb(90.588235%,90.980392%,89.803922%);fill-opacity:1;" d="M 11.148438 0.0625 C 10.382812 0.0625 9.761719 0.6875 9.761719 1.453125 L 9.761719 70.632812 C 9.761719 71.398438 10.382812 72.023438 11.148438 72.023438 L 60.171875 72.023438 C 60.933594 72.023438 61.558594 71.398438 61.558594 70.632812 L 61.558594 1.453125 C 61.558594 0.6875 60.933594 0.0625 60.171875 0.0625 L 11.148438 0.0625 M 60.171875 72.085938 L 11.148438 72.085938 C 10.351562 72.085938 9.699219 71.433594 9.699219 70.632812 L 9.699219 1.453125 C 9.699219 0.652344 10.351562 0 11.148438 0 L 60.171875 0 C 60.96875 0 61.621094 0.652344 61.621094 1.453125 L 61.621094 70.632812 C 61.621094 71.433594 60.96875 72.085938 60.171875 72.085938 "/>
<path style=" stroke:none;fill-rule:nonzero;fill:rgb(90.588235%,90.980392%,89.803922%);fill-opacity:1;" d="M 66.0625 0.0625 C 65.296875 0.0625 64.675781 0.6875 64.675781 1.453125 L 64.675781 70.632812 C 64.675781 71.398438 65.296875 72.023438 66.0625 72.023438 L 115.082031 72.023438 C 115.847656 72.023438 116.46875 71.398438 116.46875 70.632812 L 116.46875 1.453125 C 116.46875 0.6875 115.847656 0.0625 115.082031 0.0625 L 66.0625 0.0625 M 115.082031 72.085938 L 66.0625 72.085938 C 65.261719 72.085938 64.613281 71.433594 64.613281 70.632812 L 64.613281 1.453125 C 64.613281 0.652344 65.261719 0 66.0625 0 L 115.082031 0 C 115.882812 0 116.53125 0.652344 116.53125 1.453125 L 116.53125 70.632812 C 116.53125 71.433594 115.882812 72.085938 115.082031 72.085938 "/>
<path style=" stroke:none;fill-rule:nonzero;fill:rgb(90.588235%,90.980392%,89.803922%);fill-opacity:1;" d="M 55.457031 61.125 L 23.363281 61.125 L 23.363281 58.851562 L 55.457031 58.851562 L 55.457031 61.125 "/>
<path style=" stroke:none;fill-rule:nonzero;fill:rgb(85.490196%,85.882353%,84.705882%);fill-opacity:1;" d="M 55.457031 61.125 L 41.503906 61.125 L 41.503906 58.851562 L 55.457031 58.851562 L 55.457031 61.125 "/>
<path style=" stroke:none;fill-rule:nonzero;fill:rgb(90.588235%,90.980392%,89.803922%);fill-opacity:1;" d="M 28.105469 83.453125 L 23.363281 83.453125 L 23.363281 61.125 L 28.105469 61.125 L 28.105469 83.453125 "/>
<path style=" stroke:none;fill-rule:nonzero;fill:rgb(85.490196%,85.882353%,84.705882%);fill-opacity:1;" d="M 28.105469 63.429688 L 23.363281 61.808594 L 23.363281 61.125 L 28.105469 61.125 L 28.105469 63.429688 "/>
<path style=" stroke:none;fill-rule:nonzero;fill:rgb(85.490196%,85.882353%,84.705882%);fill-opacity:1;" d="M 50.714844 83.453125 L 55.457031 83.453125 L 55.457031 61.125 L 50.714844 61.125 Z M 50.714844 83.453125 "/>
<path style=" stroke:none;fill-rule:nonzero;fill:rgb(90.588235%,90.980392%,89.803922%);fill-opacity:1;" d="M 41.503906 83.453125 L 46.242188 83.453125 L 46.242188 61.125 L 41.503906 61.125 Z M 41.503906 83.453125 "/>
<path style=" stroke:none;fill-rule:nonzero;fill:rgb(85.490196%,85.882353%,84.705882%);fill-opacity:1;" d="M 46.242188 63.429688 L 41.503906 61.808594 L 41.503906 61.125 L 46.242188 61.125 L 46.242188 63.429688 "/>
<path style=" stroke:none;fill-rule:nonzero;fill:rgb(85.490196%,85.882353%,84.705882%);fill-opacity:1;" d="M 32.578125 83.453125 L 37.320312 83.453125 L 37.320312 61.125 L 32.578125 61.125 Z M 32.578125 83.453125 "/>
<path style=" stroke:none;fill-rule:nonzero;fill:rgb(90.588235%,90.980392%,89.803922%);fill-opacity:1;" d="M 18.023438 42.785156 L 58.476562 42.785156 L 58.476562 8.210938 L 18.023438 8.210938 Z M 18.023438 42.785156 "/>
<path style=" stroke:none;fill-rule:nonzero;fill:rgb(85.490196%,85.882353%,84.705882%);fill-opacity:1;" d="M 58.476562 42.785156 L 58.925781 42.785156 L 58.925781 8.210938 L 58.476562 8.210938 Z M 58.476562 42.785156 "/>
<path style=" stroke:none;fill-rule:nonzero;fill:rgb(95.294118%,94.901961%,94.509804%);fill-opacity:1;" d="M 19.546875 41.257812 L 56.953125 41.257812 L 56.953125 9.738281 L 19.546875 9.738281 Z M 19.546875 41.257812 "/>
<path style=" stroke:none;fill-rule:nonzero;fill:rgb(100%,100%,100%);fill-opacity:1;" d="M 37.796875 36.472656 C 40.078125 28.820312 40.71875 17.550781 45.578125 19.105469 C 50.4375 20.660156 44.070312 37.335938 44.070312 37.335938 L 37.796875 36.472656 "/>
<path style=" stroke:none;fill-rule:nonzero;fill:rgb(100%,100%,100%);fill-opacity:1;" d="M 41.722656 36.855469 C 39.398438 25.773438 39.984375 11.058594 32.757812 11.398438 C 25.535156 11.734375 32.757812 37.335938 32.757812 37.335938 L 41.722656 36.855469 "/>
<path style=" stroke:none;fill-rule:nonzero;fill:rgb(90.588235%,90.980392%,89.803922%);fill-opacity:1;" d="M 46.828125 35.609375 L 31.011719 35.609375 C 30.308594 35.609375 29.773438 36.128906 29.746094 36.785156 C 29.425781 44.097656 30.617188 51.554688 32.839844 58.851562 L 44.949219 58.851562 C 47.171875 51.554688 48.363281 44.097656 48.042969 36.785156 C 48.015625 36.128906 47.480469 35.609375 46.828125 35.609375 "/>
<path style=" stroke:none;fill-rule:nonzero;fill:rgb(85.490196%,85.882353%,84.705882%);fill-opacity:1;" d="M 81.921875 83.453125 L 82.8125 83.453125 L 82.8125 12.066406 L 81.921875 12.066406 Z M 81.921875 83.453125 "/>
<path style=" stroke:none;fill-rule:nonzero;fill:rgb(85.490196%,85.882353%,84.705882%);fill-opacity:1;" d="M 103.757812 12.066406 L 102.863281 12.066406 L 102.863281 83.453125 L 103.757812 83.453125 L 103.757812 12.066406 "/>
<path style=" stroke:none;fill-rule:nonzero;fill:rgb(90.588235%,90.980392%,89.803922%);fill-opacity:1;" d="M 75.601562 83.453125 L 76.496094 83.453125 L 76.496094 12.066406 L 75.601562 12.066406 Z M 75.601562 83.453125 "/>
<path style=" stroke:none;fill-rule:nonzero;fill:rgb(90.588235%,90.980392%,89.803922%);fill-opacity:1;" d="M 97.4375 12.066406 L 96.546875 12.066406 L 96.546875 83.453125 L 97.4375 83.453125 L 97.4375 12.066406 "/>
<path style=" stroke:none;fill-rule:nonzero;fill:rgb(90.588235%,90.980392%,89.803922%);fill-opacity:1;" d="M 103.757812 12.554688 L 75.601562 12.554688 L 75.601562 11.578125 L 103.757812 11.578125 L 103.757812 12.554688 "/>
<path style=" stroke:none;fill-rule:nonzero;fill:rgb(90.588235%,90.980392%,89.803922%);fill-opacity:1;" d="M 75.601562 30.035156 L 103.757812 30.035156 L 103.757812 29.058594 L 75.601562 29.058594 Z M 75.601562 30.035156 "/>
<path style=" stroke:none;fill-rule:nonzero;fill:rgb(90.588235%,90.980392%,89.803922%);fill-opacity:1;" d="M 75.601562 47.515625 L 103.757812 47.515625 L 103.757812 46.539062 L 75.601562 46.539062 Z M 75.601562 47.515625 "/>
<path style=" stroke:none;fill-rule:nonzero;fill:rgb(90.588235%,90.980392%,89.803922%);fill-opacity:1;" d="M 103.757812 64.996094 L 75.601562 64.996094 L 75.601562 64.023438 L 103.757812 64.023438 L 103.757812 64.996094 "/>
<path style=" stroke:none;fill-rule:nonzero;fill:rgb(90.588235%,90.980392%,89.803922%);fill-opacity:1;" d="M 75.601562 82.480469 L 103.757812 82.480469 L 103.757812 81.503906 L 75.601562 81.503906 Z M 75.601562 82.480469 "/>
<path style=" stroke:none;fill-rule:nonzero;fill:rgb(85.490196%,85.882353%,84.705882%);fill-opacity:1;" d="M 103.757812 12.554688 L 97.4375 12.554688 L 97.4375 11.578125 L 103.757812 11.578125 L 103.757812 12.554688 "/>
<path style=" stroke:none;fill-rule:nonzero;fill:rgb(85.490196%,85.882353%,84.705882%);fill-opacity:1;" d="M 103.757812 30.035156 L 97.4375 30.035156 L 97.4375 29.058594 L 103.757812 29.058594 L 103.757812 30.035156 "/>
<path style=" stroke:none;fill-rule:nonzero;fill:rgb(85.490196%,85.882353%,84.705882%);fill-opacity:1;" d="M 103.757812 47.515625 L 97.4375 47.515625 L 97.4375 46.539062 L 103.757812 46.539062 L 103.757812 47.515625 "/>
<path style=" stroke:none;fill-rule:nonzero;fill:rgb(85.490196%,85.882353%,84.705882%);fill-opacity:1;" d="M 103.757812 64.996094 L 97.4375 64.996094 L 97.4375 64.019531 L 103.757812 64.019531 L 103.757812 64.996094 "/>
<path style=" stroke:none;fill-rule:nonzero;fill:rgb(85.490196%,85.882353%,84.705882%);fill-opacity:1;" d="M 103.757812 82.476562 L 97.4375 82.476562 L 97.4375 81.503906 L 103.757812 81.503906 L 103.757812 82.476562 "/>
<path style=" stroke:none;fill-rule:nonzero;fill:rgb(92.941176%,92.941176%,92.156863%);fill-opacity:1;" d="M 86.960938 17.523438 L 86.960938 16.148438 L 83.574219 16.148438 L 83.574219 17.523438 C 83.574219 18.421875 82.847656 19.152344 81.953125 19.152344 C 81.058594 19.152344 80.332031 19.878906 80.332031 20.777344 L 80.332031 29.058594 L 90.203125 29.058594 L 90.203125 20.777344 C 90.203125 19.878906 89.476562 19.152344 88.582031 19.152344 C 87.6875 19.152344 86.960938 18.421875 86.960938 17.523438 "/>
<path style=" stroke:none;fill-rule:nonzero;fill:rgb(92.941176%,92.941176%,92.156863%);fill-opacity:1;" d="M 79.132812 46.539062 L 93.964844 46.539062 L 93.964844 40.855469 L 79.132812 40.855469 Z M 79.132812 46.539062 "/>
<path style=" stroke:none;fill-rule:nonzero;fill:rgb(88.627451%,88.627451%,87.843137%);fill-opacity:1;" d="M 93.964844 40.855469 L 96.546875 40.855469 L 96.546875 46.539062 L 93.964844 46.539062 L 93.964844 40.855469 "/>
<path style=" stroke:none;fill-rule:nonzero;fill:rgb(90.588235%,90.980392%,89.803922%);fill-opacity:1;" d="M 93.964844 43.382812 L 96.546875 43.382812 L 96.546875 44.011719 L 93.964844 44.011719 L 93.964844 43.382812 "/>
<path style=" stroke:none;fill-rule:nonzero;fill:rgb(95.294118%,94.901961%,94.509804%);fill-opacity:1;" d="M 93.964844 43.382812 L 79.132812 43.382812 L 79.132812 44.011719 L 93.964844 44.011719 L 93.964844 43.382812 "/>
<path style=" stroke:none;fill-rule:nonzero;fill:rgb(92.941176%,92.941176%,92.156863%);fill-opacity:1;" d="M 89.988281 71.449219 L 78.40625 71.449219 L 78.40625 81.503906 L 89.988281 81.503906 L 89.988281 71.449219 "/>
<path style=" stroke:none;fill-rule:nonzero;fill:rgb(88.627451%,88.627451%,87.843137%);fill-opacity:1;" d="M 89.988281 71.449219 L 92.007812 71.449219 L 92.007812 81.503906 L 89.988281 81.503906 L 89.988281 71.449219 "/>
<path style=" stroke:none;fill-rule:nonzero;fill:rgb(90.588235%,90.980392%,89.803922%);fill-opacity:1;" d="M 89.988281 75.921875 L 92.007812 75.921875 L 92.007812 77.03125 L 89.988281 77.03125 L 89.988281 75.921875 "/>
<path style=" stroke:none;fill-rule:nonzero;fill:rgb(95.294118%,94.901961%,94.509804%);fill-opacity:1;" d="M 89.988281 75.921875 L 78.40625 75.921875 L 78.40625 77.03125 L 89.988281 77.03125 L 89.988281 75.921875 "/>
<path style=" stroke:none;fill-rule:nonzero;fill:rgb(90.588235%,90.980392%,89.803922%);fill-opacity:1;" d="M 89.988281 74.75 L 92.007812 74.75 L 92.007812 75.144531 L 89.988281 75.144531 L 89.988281 74.75 "/>
<path style=" stroke:none;fill-rule:nonzero;fill:rgb(95.294118%,94.901961%,94.509804%);fill-opacity:1;" d="M 89.988281 74.75 L 78.40625 74.75 L 78.40625 75.144531 L 89.988281 75.144531 L 89.988281 74.75 "/>
<path style=" stroke:none;fill-rule:nonzero;fill:rgb(92.941176%,92.941176%,92.156863%);fill-opacity:1;" d="M 79.132812 64.019531 L 81.230469 64.019531 L 81.230469 53.800781 L 79.132812 53.800781 Z M 79.132812 64.019531 "/>
<path style=" stroke:none;fill-rule:nonzero;fill:rgb(98.039216%,98.039216%,97.647059%);fill-opacity:1;" d="M 79.132812 60.378906 L 81.230469 60.378906 L 81.230469 57.441406 L 79.132812 57.441406 Z M 79.132812 60.378906 "/>
<path style=" stroke:none;fill-rule:nonzero;fill:rgb(88.627451%,88.627451%,87.843137%);fill-opacity:1;" d="M 81.230469 53.800781 L 88.363281 53.800781 L 88.363281 64.019531 L 81.230469 64.019531 L 81.230469 53.800781 "/>
<path style=" stroke:none;fill-rule:nonzero;fill:rgb(90.588235%,90.980392%,89.803922%);fill-opacity:1;" d="M 84.46875 52.480469 L 82.101562 52.480469 L 82.101562 64.019531 L 84.46875 64.019531 L 84.46875 52.480469 "/>
<path style=" stroke:none;fill-rule:nonzero;fill:rgb(98.039216%,98.039216%,97.647059%);fill-opacity:1;" d="M 84.46875 56.148438 L 82.101562 56.148438 L 82.101562 57.925781 L 84.46875 57.925781 L 84.46875 56.148438 "/>
<path style=" stroke:none;fill-rule:nonzero;fill:rgb(98.039216%,98.039216%,97.647059%);fill-opacity:1;" d="M 84.46875 59.117188 L 82.101562 59.117188 L 82.101562 60.890625 L 84.46875 60.890625 L 84.46875 59.117188 "/>
<path style=" stroke:none;fill-rule:nonzero;fill:rgb(85.490196%,85.882353%,84.705882%);fill-opacity:1;" d="M 84.46875 52.480469 L 92.527344 52.480469 L 92.527344 64.019531 L 84.46875 64.019531 L 84.46875 52.480469 "/>
<path style=" stroke:none;fill-rule:nonzero;fill:rgb(92.941176%,92.941176%,92.156863%);fill-opacity:1;" d="M 87.105469 53.800781 L 85.828125 53.800781 L 85.828125 64.019531 L 87.105469 64.019531 L 87.105469 53.800781 "/>
<path style=" stroke:none;fill-rule:nonzero;fill:rgb(98.039216%,98.039216%,97.647059%);fill-opacity:1;" d="M 86.886719 55.097656 L 86.046875 55.097656 L 86.046875 62.726562 L 86.886719 62.726562 L 86.886719 55.097656 "/>
<path style=" stroke:none;fill-rule:nonzero;fill:rgb(88.627451%,88.627451%,87.843137%);fill-opacity:1;" d="M 87.105469 53.800781 L 91.441406 53.800781 L 91.441406 64.019531 L 87.105469 64.019531 L 87.105469 53.800781 "/>
<path style=" stroke:none;fill-rule:nonzero;fill:rgb(90.588235%,90.980392%,89.803922%);fill-opacity:1;" d="M 90.515625 53.261719 L 89.074219 53.261719 L 89.074219 64.019531 L 90.515625 64.019531 L 90.515625 53.261719 "/>
<path style=" stroke:none;fill-rule:nonzero;fill:rgb(98.039216%,98.039216%,97.647059%);fill-opacity:1;" d="M 90.515625 56.683594 L 89.074219 56.683594 L 89.074219 58.339844 L 90.515625 58.339844 L 90.515625 56.683594 "/>
<path style=" stroke:none;fill-rule:nonzero;fill:rgb(98.039216%,98.039216%,97.647059%);fill-opacity:1;" d="M 90.515625 59.449219 L 89.074219 59.449219 L 89.074219 61.105469 L 90.515625 61.105469 L 90.515625 59.449219 "/>
<path style=" stroke:none;fill-rule:nonzero;fill:rgb(85.490196%,85.882353%,84.705882%);fill-opacity:1;" d="M 90.515625 53.261719 L 95.414062 53.261719 L 95.414062 64.019531 L 90.515625 64.019531 L 90.515625 53.261719 "/>
<path style=" stroke:none;fill-rule:nonzero;fill:rgb(95.294118%,94.901961%,94.509804%);fill-opacity:1;" d="M 90.785156 37.6875 C 90.785156 35.9375 89.371094 34.515625 87.625 34.515625 C 85.882812 34.515625 84.46875 35.9375 84.46875 37.6875 C 84.46875 39.4375 85.882812 40.855469 87.625 40.855469 C 89.371094 40.855469 90.785156 39.4375 90.785156 37.6875 "/>
<path style=" stroke:none;fill-rule:nonzero;fill:rgb(90.588235%,90.980392%,89.803922%);fill-opacity:1;" d="M 93.308594 38.65625 C 93.308594 37.445312 92.328125 36.460938 91.121094 36.460938 C 89.910156 36.460938 88.929688 37.445312 88.929688 38.65625 C 88.929688 39.871094 89.910156 40.855469 91.121094 40.855469 C 92.328125 40.855469 93.308594 39.871094 93.308594 38.65625 "/>
<path style=" stroke:none;fill-rule:nonzero;fill:rgb(95.294118%,94.901961%,94.509804%);fill-opacity:1;" d="M 112.691406 92.078125 C 112.691406 93.671875 90.652344 94.964844 63.46875 94.964844 C 36.28125 94.964844 14.246094 93.671875 14.246094 92.078125 C 14.246094 90.484375 36.28125 89.191406 63.46875 89.191406 C 90.652344 89.191406 112.691406 90.484375 112.691406 92.078125 "/>
<path style=" stroke:none;fill-rule:nonzero;fill:rgb(25.098039%,43.529412%,74.901961%);fill-opacity:1;" d="M 64.625 72.3125 L 32.015625 72.3125 L 32.015625 89.222656 C 32.015625 90.132812 32.75 90.871094 33.660156 90.871094 L 62.980469 90.871094 C 63.890625 90.871094 64.625 90.132812 64.625 89.222656 L 64.625 72.3125 "/>
<path style=" stroke:none;fill-rule:nonzero;fill:rgb(25.098039%,43.529412%,74.901961%);fill-opacity:1;" d="M 32.015625 72.3125 L 55.089844 72.3125 L 52.25 68.667969 C 51.9375 68.269531 51.164062 67.945312 50.523438 67.945312 L 29.773438 67.945312 C 29.132812 67.945312 28.867188 68.269531 29.175781 68.667969 L 32.015625 72.3125 "/>
<path style=" stroke:none;fill-rule:nonzero;fill:rgb(20.784314%,38.823529%,71.764706%);fill-opacity:1;" d="M 41.550781 72.3125 L 32.015625 72.3125 L 29.175781 68.667969 C 29.089844 68.554688 29.046875 68.449219 29.046875 68.351562 C 29.046875 68.109375 29.316406 67.945312 29.773438 67.945312 L 50.523438 67.945312 C 51.164062 67.945312 51.9375 68.269531 52.25 68.667969 L 52.871094 69.464844 L 46.117188 69.464844 C 45.472656 69.464844 44.703125 69.675781 44.390625 69.9375 L 41.550781 72.3125 "/>
<path style=" stroke:none;fill-rule:nonzero;fill:rgb(25.098039%,43.529412%,74.901961%);fill-opacity:1;" d="M 64.625 72.3125 L 41.550781 72.3125 L 44.390625 69.9375 C 44.703125 69.675781 45.472656 69.464844 46.117188 69.464844 L 66.863281 69.464844 C 67.507812 69.464844 67.773438 69.675781 67.464844 69.9375 L 64.625 72.3125 "/>
<path style=" stroke:none;fill-rule:nonzero;fill:rgb(36.470588%,52.941176%,80.392157%);fill-opacity:1;" d="M 62.980469 90.871094 L 43.195312 90.871094 C 42.285156 90.871094 41.550781 90.132812 41.550781 89.222656 L 41.550781 72.3125 L 64.625 72.3125 L 64.625 89.222656 C 64.625 90.132812 63.890625 90.871094 62.980469 90.871094 "/>
<path style=" stroke:none;fill-rule:nonzero;fill:rgb(56.470588%,70.588235%,89.019608%);fill-opacity:1;" d="M 38.6875 83.90625 L 37.921875 83.375 L 37.226562 83.90625 L 36.726562 83.203125 L 36.238281 83.90625 L 35.675781 83.273438 L 34.878906 83.90625 L 34.878906 72.3125 L 38.6875 72.3125 L 38.6875 83.90625 "/>
<path style=" stroke:none;fill-rule:nonzero;fill:rgb(25.098039%,43.529412%,74.901961%);fill-opacity:1;" d="M 40.125 46.933594 L 36.023438 43.476562 L 35.859375 43.671875 L 39.960938 47.128906 "/>
<path style=" stroke:none;fill-rule:nonzero;fill:rgb(25.098039%,43.529412%,74.901961%);fill-opacity:1;" d="M 42.25 48.722656 L 40.996094 47.667969 L 40.835938 47.863281 L 42.085938 48.917969 "/>
<path style=" stroke:none;fill-rule:nonzero;fill:rgb(25.098039%,43.529412%,74.901961%);fill-opacity:1;" d="M 54.449219 56.054688 L 67.976562 39.082031 L 49.964844 23.902344 L 38.023438 37.648438 L 36.257812 41.085938 C 35.886719 41.511719 35.9375 42.113281 36.378906 42.484375 L 52.628906 56.179688 C 53.152344 56.621094 54.007812 56.5625 54.449219 56.054688 "/>
<path style=" stroke:none;fill-rule:nonzero;fill:rgb(56.470588%,70.588235%,89.019608%);fill-opacity:1;" d="M 46.164062 49.207031 L 45.675781 48.425781 L 45.035156 48.238281 L 44.796875 47.617188 L 44.273438 47.585938 L 44.007812 46.855469 L 43.226562 46.6875 L 45.117188 43.625 L 48.074219 46.117188 L 46.164062 49.207031 "/>
<path style=" stroke:none;fill-rule:nonzero;fill:rgb(23.137255%,41.176471%,73.333333%);fill-opacity:1;" d="M 55.253906 52.167969 L 48.074219 46.117188 L 48.113281 46.058594 L 45.171875 43.539062 L 45.117188 43.625 L 38.023438 37.648438 L 39.328125 38.746094 L 47.734375 29.296875 L 63.652344 42.769531 L 67.386719 38.585938 L 55.253906 52.167969 M 38.023438 37.648438 L 49.964844 23.902344 L 38.023438 37.648438 "/>
<path style=" stroke:none;fill-rule:nonzero;fill:rgb(49.803922%,63.921569%,85.882353%);fill-opacity:1;" d="M 48.074219 46.117188 L 45.117188 43.625 L 45.171875 43.539062 L 48.113281 46.058594 L 48.074219 46.117188 "/>
<path style=" stroke:none;fill-rule:nonzero;fill:rgb(25.098039%,43.529412%,74.901961%);fill-opacity:1;" d="M 67.386719 38.585938 L 55.253906 52.167969 L 60.277344 52.542969 L 72.21875 38.796875 L 67.386719 38.585938 "/>
<path style=" stroke:none;fill-rule:nonzero;fill:rgb(17.647059%,35.686275%,69.803922%);fill-opacity:1;" d="M 60.277344 52.542969 L 57.417969 52.332031 L 55.253906 52.167969 L 67.386719 38.585938 L 72.21875 38.796875 L 64.675781 47.480469 L 64.613281 47.554688 L 61.621094 50.996094 L 61.558594 51.070312 L 60.277344 52.542969 "/>
<path style=" stroke:none;fill-rule:nonzero;fill:rgb(25.098039%,43.529412%,74.901961%);fill-opacity:1;" d="M 45.132812 23.691406 L 33.003906 37.273438 L 38.023438 37.648438 L 49.964844 23.902344 L 45.132812 23.691406 "/>
<path style=" stroke:none;fill-rule:nonzero;fill:rgb(13.333333%,31.764706%,66.666667%);fill-opacity:1;" d="M 38.023438 37.648438 L 33.003906 37.273438 L 45.132812 23.691406 L 49.964844 23.902344 L 38.023438 37.648438 "/>
<path style=" stroke:none;fill-rule:nonzero;fill:rgb(77.254902%,77.647059%,77.254902%);fill-opacity:1;" d="M 67.386719 38.585938 L 64.675781 36.300781 L 67.386719 38.585938 M 64.613281 36.246094 L 61.621094 33.726562 L 64.613281 36.246094 M 61.558594 33.671875 L 58.957031 31.480469 L 61.558594 33.671875 "/>
<path style=" stroke:none;fill-rule:nonzero;fill:rgb(69.803922%,70.588235%,69.803922%);fill-opacity:1;" d="M 61.621094 33.726562 L 61.558594 33.671875 L 61.621094 33.726562 "/>
<path style=" stroke:none;fill-rule:nonzero;fill:rgb(69.803922%,70.588235%,69.803922%);fill-opacity:1;" d="M 64.675781 36.300781 L 64.613281 36.246094 L 64.675781 36.300781 "/>
<path style=" stroke:none;fill-rule:nonzero;fill:rgb(69.803922%,70.588235%,69.803922%);fill-opacity:1;" d="M 58.066406 30.730469 L 56.953125 29.792969 L 58.066406 30.730469 "/>
<path style=" stroke:none;fill-rule:nonzero;fill:rgb(73.72549%,74.509804%,73.72549%);fill-opacity:1;" d="M 56.953125 29.792969 L 49.964844 23.902344 L 56.953125 29.792969 "/>
<path style=" stroke:none;fill-rule:nonzero;fill:rgb(20.784314%,38.823529%,72.156863%);fill-opacity:1;" d="M 63.652344 42.769531 L 47.734375 29.296875 L 49.964844 23.902344 L 56.953125 29.792969 L 58.066406 30.730469 L 57.96875 31.082031 C 58.296875 31.226562 58.625 31.359375 58.957031 31.480469 L 61.558594 33.671875 L 61.621094 33.726562 L 64.613281 36.246094 L 64.675781 36.300781 L 67.386719 38.585938 L 63.652344 42.769531 "/>
<path style=" stroke:none;fill-rule:nonzero;fill:rgb(18.039216%,36.470588%,70.196078%);fill-opacity:1;" d="M 39.328125 38.746094 L 38.023438 37.648438 L 49.964844 23.902344 L 47.734375 29.296875 L 39.328125 38.746094 "/>
<path style=" stroke:none;fill-rule:nonzero;fill:rgb(9.019608%,15.686275%,18.431373%);fill-opacity:1;" d="M 71.597656 13.011719 C 71.644531 13.175781 71.597656 13.335938 71.488281 13.367188 C 71.382812 13.398438 71.257812 13.292969 71.207031 13.125 C 71.160156 12.960938 71.207031 12.804688 71.316406 12.773438 C 71.421875 12.738281 71.546875 12.847656 71.597656 13.011719 "/>
<path style=" stroke:none;fill-rule:nonzero;fill:rgb(95.686275%,40.784314%,47.058824%);fill-opacity:1;" d="M 71.609375 13.332031 C 71.609375 13.332031 71.515625 14.390625 71.238281 14.96875 C 71.609375 15.15625 72.066406 14.886719 72.066406 14.886719 L 71.609375 13.332031 "/>
<path style=" stroke:none;fill-rule:nonzero;fill:rgb(9.019608%,15.686275%,18.431373%);fill-opacity:1;" d="M 71.929688 11.921875 C 71.949219 11.910156 71.96875 11.890625 71.976562 11.867188 C 71.996094 11.8125 71.96875 11.757812 71.914062 11.738281 C 71.390625 11.550781 71.023438 11.832031 71.003906 11.84375 C 70.960938 11.878906 70.953125 11.941406 70.988281 11.984375 C 71.019531 12.027344 71.085938 12.035156 71.128906 12.003906 C 71.140625 11.992188 71.429688 11.78125 71.847656 11.925781 C 71.875 11.9375 71.90625 11.933594 71.929688 11.921875 "/>
<path style=" stroke:none;fill-rule:nonzero;fill:rgb(97.647059%,65.882353%,70.196078%);fill-opacity:1;" d="M 77.238281 14.101562 C 77.351562 15.453125 77.683594 17.929688 78.476562 18.496094 C 78.476562 18.496094 78.289062 20.117188 75.441406 20.539062 C 72.308594 21.003906 73.714844 19.203125 73.714844 19.203125 C 75.363281 18.539062 75.132812 17.273438 74.660156 16.121094 L 75.867188 14.726562 C 76.324219 14.207031 77.183594 13.410156 77.238281 14.101562 "/>
<path style=" stroke:none;fill-rule:nonzero;fill:rgb(100%,100%,100%);fill-opacity:1;" d="M 79.5 19.15625 C 79.757812 18.921875 79.242188 17.996094 78.933594 17.867188 C 78.117188 17.523438 74.773438 17.863281 73.515625 18.949219 C 73.15625 19.523438 73.417969 20.144531 73.417969 20.144531 L 79.5 19.15625 "/>
<path style=" stroke:none;fill-rule:nonzero;fill:rgb(25.098039%,43.529412%,74.901961%);fill-opacity:1;" d="M 89.777344 86.96875 L 89.71875 86.996094 C 89.679688 87.015625 89.660156 87.046875 89.652344 87.085938 C 89.632812 87.179688 89.667969 87.203125 89.679688 87.214844 C 89.800781 87.300781 90.214844 87.175781 90.5 87.03125 C 90.292969 86.976562 89.960938 86.914062 89.777344 86.96875 Z M 90.148438 87.28125 C 89.941406 87.34375 89.730469 87.375 89.621094 87.296875 C 89.574219 87.261719 89.527344 87.195312 89.550781 87.066406 C 89.566406 86.996094 89.605469 86.945312 89.667969 86.90625 C 89.941406 86.746094 90.621094 86.960938 90.648438 86.96875 L 90.683594 87.011719 L 90.660156 87.058594 C 90.5625 87.117188 90.355469 87.214844 90.148438 87.28125 "/>
<path style=" stroke:none;fill-rule:nonzero;fill:rgb(25.098039%,43.529412%,74.901961%);fill-opacity:1;" d="M 89.988281 86.367188 L 89.964844 86.375 C 89.90625 86.402344 89.910156 86.429688 89.910156 86.445312 C 89.925781 86.585938 90.289062 86.84375 90.542969 86.9375 C 90.46875 86.773438 90.300781 86.453125 90.109375 86.375 C 90.066406 86.355469 90.027344 86.355469 89.988281 86.367188 Z M 90.648438 87.0625 L 90.621094 87.066406 C 90.378906 87.015625 89.835938 86.695312 89.8125 86.457031 C 89.804688 86.410156 89.816406 86.332031 89.925781 86.28125 C 89.996094 86.25 90.070312 86.25 90.148438 86.28125 C 90.441406 86.402344 90.671875 86.972656 90.679688 86.996094 L 90.671875 87.046875 L 90.648438 87.0625 "/>
<path style=" stroke:none;fill-rule:nonzero;fill:rgb(25.098039%,43.529412%,74.901961%);fill-opacity:1;" d="M 74.933594 89.605469 C 74.898438 89.605469 74.863281 89.609375 74.835938 89.617188 C 74.789062 89.628906 74.757812 89.652344 74.738281 89.6875 C 74.703125 89.75 74.714844 89.78125 74.726562 89.796875 C 74.828125 89.933594 75.363281 89.9375 75.753906 89.882812 C 75.558594 89.78125 75.179688 89.605469 74.933594 89.605469 Z M 75.269531 90.015625 C 74.996094 90.015625 74.734375 89.980469 74.648438 89.855469 C 74.617188 89.8125 74.589844 89.742188 74.652344 89.636719 C 74.683594 89.578125 74.738281 89.539062 74.808594 89.519531 C 75.164062 89.421875 75.902344 89.847656 75.933594 89.863281 L 75.957031 89.914062 L 75.917969 89.957031 C 75.785156 89.984375 75.523438 90.015625 75.269531 90.015625 "/>
<path style=" stroke:none;fill-rule:nonzero;fill:rgb(25.098039%,43.529412%,74.901961%);fill-opacity:1;" d="M 75.390625 89.097656 L 75.363281 89.097656 C 75.273438 89.105469 75.265625 89.140625 75.265625 89.152344 C 75.242188 89.296875 75.585938 89.660156 75.84375 89.816406 C 75.820312 89.648438 75.742188 89.308594 75.566406 89.160156 C 75.511719 89.117188 75.457031 89.097656 75.390625 89.097656 Z M 75.910156 89.957031 L 75.886719 89.953125 C 75.632812 89.839844 75.125 89.378906 75.164062 89.136719 C 75.175781 89.082031 75.214844 89.011719 75.351562 88.996094 C 75.453125 88.988281 75.546875 89.015625 75.628906 89.082031 C 75.898438 89.304688 75.957031 89.878906 75.957031 89.902344 L 75.9375 89.949219 L 75.910156 89.957031 "/>
<path style=" stroke:none;fill-rule:nonzero;fill:rgb(97.647059%,65.882353%,70.196078%);fill-opacity:1;" d="M 78.238281 89.90625 L 76.121094 89.90625 L 75.910156 84.984375 L 78.027344 84.984375 L 78.238281 89.90625 "/>
<path style=" stroke:none;fill-rule:nonzero;fill:rgb(97.647059%,65.882353%,70.196078%);fill-opacity:1;" d="M 93.128906 86.546875 L 91.175781 87.222656 L 89.152344 82.578125 L 91.101562 81.902344 L 93.128906 86.546875 "/>
<path style=" stroke:none;fill-rule:nonzero;fill:rgb(9.019608%,15.686275%,18.431373%);fill-opacity:1;" d="M 90.710938 86.734375 L 92.988281 86.035156 C 93.070312 86.007812 93.160156 86.042969 93.203125 86.121094 L 94.152344 87.804688 C 94.253906 87.976562 94.160156 88.199219 93.96875 88.257812 C 93.167969 88.488281 92.769531 88.558594 91.769531 88.867188 C 91.152344 89.054688 89.601562 89.648438 88.730469 89.824219 C 87.875 89.996094 87.570312 89.15625 87.910156 89.007812 C 89.441406 88.332031 90.058594 87.566406 90.421875 86.960938 C 90.488281 86.851562 90.589844 86.769531 90.710938 86.734375 "/>
<path style=" stroke:none;fill-rule:nonzero;fill:rgb(9.019608%,15.686275%,18.431373%);fill-opacity:1;" d="M 76.132812 89.660156 L 78.445312 89.660156 C 78.53125 89.660156 78.609375 89.722656 78.625 89.808594 L 79.046875 91.695312 C 79.089844 91.890625 78.941406 92.078125 78.742188 92.074219 C 77.90625 92.058594 76.699219 92.011719 75.652344 92.011719 C 74.425781 92.011719 73.910156 92.078125 72.472656 92.078125 C 71.601562 92.078125 71.359375 91.195312 71.722656 91.117188 C 73.382812 90.753906 74.191406 90.714844 75.625 89.828125 C 75.777344 89.730469 75.949219 89.660156 76.132812 89.660156 "/>
<path style=" stroke:none;fill-rule:nonzero;fill:rgb(97.647059%,65.882353%,70.196078%);fill-opacity:1;" d="M 82.289062 19.851562 C 82.90625 20.421875 83.441406 20.988281 83.992188 21.582031 C 84.53125 22.175781 85.058594 22.789062 85.558594 23.445312 C 86.058594 24.09375 86.535156 24.777344 86.96875 25.546875 C 87.183594 25.929688 87.390625 26.335938 87.5625 26.804688 C 87.605469 26.921875 87.648438 27.035156 87.6875 27.167969 C 87.722656 27.296875 87.761719 27.421875 87.789062 27.566406 L 87.832031 27.777344 L 87.863281 28.011719 C 87.882812 28.125 87.898438 28.4375 87.863281 28.664062 C 87.796875 29.140625 87.613281 29.507812 87.425781 29.792969 C 87.238281 30.074219 87.039062 30.285156 86.84375 30.46875 C 86.449219 30.832031 86.066406 31.085938 85.683594 31.316406 C 84.921875 31.769531 84.164062 32.089844 83.402344 32.382812 C 81.882812 32.957031 80.363281 33.359375 78.789062 33.65625 L 78.34375 32.125 C 79.722656 31.527344 81.121094 30.878906 82.414062 30.1875 C 83.0625 29.839844 83.6875 29.464844 84.21875 29.070312 C 84.480469 28.875 84.722656 28.667969 84.878906 28.488281 C 84.957031 28.398438 85.007812 28.3125 85.027344 28.269531 C 85.046875 28.226562 85.019531 28.230469 85 28.320312 C 84.984375 28.492188 84.988281 28.359375 84.945312 28.269531 C 84.933594 28.222656 84.910156 28.167969 84.886719 28.109375 C 84.867188 28.054688 84.835938 27.992188 84.808594 27.929688 C 84.6875 27.679688 84.527344 27.402344 84.347656 27.121094 C 83.984375 26.5625 83.542969 25.996094 83.078125 25.4375 C 82.613281 24.882812 82.121094 24.328125 81.617188 23.785156 C 81.121094 23.242188 80.578125 22.695312 80.082031 22.191406 L 82.289062 19.851562 "/>
<path style=" stroke:none;fill-rule:nonzero;fill:rgb(97.647059%,65.882353%,70.196078%);fill-opacity:1;" d="M 78.921875 31.890625 L 76.910156 32.496094 L 78.195312 34.617188 C 78.195312 34.617188 79.378906 34.125 79.636719 33.117188 L 78.921875 31.890625 "/>
<path style=" stroke:none;fill-rule:nonzero;fill:rgb(97.647059%,65.882353%,70.196078%);fill-opacity:1;" d="M 76.117188 33.246094 L 76.902344 34.996094 L 78.195312 34.617188 L 76.910156 32.496094 L 76.117188 33.246094 "/>
<path style=" stroke:none;fill-rule:nonzero;fill:rgb(25.098039%,43.529412%,74.901961%);fill-opacity:1;" d="M 77.609375 20.429688 C 77.417969 22.464844 81.714844 25.621094 81.714844 25.621094 L 85.851562 22.777344 C 85.851562 22.777344 85 20.949219 82.796875 19.53125 C 80.433594 18.003906 77.847656 17.894531 77.609375 20.429688 "/>
<path style=" stroke:none;fill-rule:nonzero;fill:rgb(42.745098%,59.215686%,83.921569%);fill-opacity:1;" d="M 82.441406 25.121094 C 82.328125 23.804688 82.25 22.4375 82.238281 21.046875 C 82.230469 19.761719 81.308594 18.699219 80.101562 18.464844 C 80.933594 18.5625 81.882812 18.941406 82.796875 19.53125 C 85 20.949219 85.851562 22.777344 85.851562 22.777344 L 85.324219 23.140625 L 82.671875 24.960938 L 82.441406 25.121094 "/>
<path style=" stroke:none;fill-rule:nonzero;fill:rgb(25.098039%,43.529412%,74.901961%);fill-opacity:1;" d="M 70.578125 20.261719 C 70.578125 20.261719 68.71875 23.121094 73.128906 38.460938 L 84.335938 36.800781 C 84.175781 35.246094 82.300781 28.464844 82.238281 21.046875 C 82.226562 19.542969 80.96875 18.347656 79.472656 18.421875 C 79.144531 18.4375 78.808594 18.460938 78.476562 18.496094 C 77.035156 18.636719 74.957031 18.898438 73.714844 19.203125 C 72.078125 19.601562 70.578125 20.261719 70.578125 20.261719 "/>
<path style=" stroke:none;fill-rule:nonzero;fill:rgb(42.745098%,59.215686%,83.921569%);fill-opacity:1;" d="M 73.128906 38.460938 C 71.914062 34.234375 71.175781 30.957031 70.742188 28.421875 C 70.851562 29.066406 70.984375 29.757812 71.136719 30.5 C 71.789062 29.585938 72.941406 27.773438 73.039062 26.203125 C 73.597656 25.46875 74.003906 24.65625 74.003906 23.84375 C 74.003906 23.617188 73.976562 23.394531 73.90625 23.171875 C 73.457031 21.695312 72.449219 20.183594 71.148438 20.183594 C 70.960938 20.183594 70.765625 20.214844 70.566406 20.28125 C 70.574219 20.269531 70.578125 20.261719 70.578125 20.261719 C 70.578125 20.261719 72.078125 19.601562 73.714844 19.203125 C 74.957031 18.898438 77.035156 18.636719 78.476562 18.496094 C 78.808594 18.460938 79.144531 18.4375 79.472656 18.421875 C 79.515625 18.421875 79.5625 18.417969 79.605469 18.417969 C 81.042969 18.417969 82.226562 19.589844 82.238281 21.046875 C 82.300781 28.464844 84.175781 35.246094 84.335938 36.800781 L 82.8125 37.023438 L 81.921875 37.15625 L 76.496094 37.960938 L 75.601562 38.09375 L 73.128906 38.460938 "/>
<path style=" stroke:none;fill-rule:nonzero;fill:rgb(33.333333%,49.411765%,78.431373%);fill-opacity:1;" d="M 71.136719 30.5 C 70.984375 29.757812 70.851562 29.066406 70.742188 28.421875 C 71.425781 27.902344 72.347656 27.113281 73.039062 26.203125 C 72.941406 27.773438 71.789062 29.585938 71.136719 30.5 "/>
<path style=" stroke:none;fill-rule:nonzero;fill:rgb(76.470588%,77.254902%,76.078431%);fill-opacity:1;" d="M 78.136719 87.523438 L 78.027344 84.984375 L 78.136719 87.523438 M 76.015625 87.523438 L 76.007812 87.308594 L 76.015625 87.523438 "/>
<path style=" stroke:none;fill-rule:nonzero;fill:rgb(84.705882%,53.72549%,54.901961%);fill-opacity:1;" d="M 78.136719 87.523438 L 76.015625 87.523438 L 76.007812 87.308594 L 75.910156 84.984375 L 78.027344 84.984375 L 78.136719 87.523438 "/>
<path style=" stroke:none;fill-rule:nonzero;fill:rgb(76.470588%,77.254902%,76.078431%);fill-opacity:1;" d="M 92.148438 84.296875 L 91.804688 83.519531 L 91.808594 83.519531 L 92.148438 84.296875 M 91.78125 83.453125 L 91.777344 83.453125 L 91.722656 83.328125 L 91.726562 83.328125 L 91.78125 83.453125 "/>
<path style=" stroke:none;fill-rule:nonzero;fill:rgb(69.411765%,70.196078%,69.411765%);fill-opacity:1;" d="M 91.808594 83.519531 L 91.804688 83.519531 L 91.777344 83.453125 L 91.78125 83.453125 L 91.808594 83.519531 "/>
<path style=" stroke:none;fill-rule:nonzero;fill:rgb(84.705882%,53.72549%,54.901961%);fill-opacity:1;" d="M 90.195312 84.972656 L 89.773438 84.003906 L 91.722656 83.328125 L 91.777344 83.453125 L 91.804688 83.519531 L 92.148438 84.296875 L 90.195312 84.972656 "/>
<path style=" stroke:none;fill-rule:nonzero;fill:rgb(97.647059%,65.882353%,70.196078%);fill-opacity:1;" d="M 76.960938 11.050781 C 77.429688 13.109375 77.804688 14.289062 77.09375 15.625 C 76.019531 17.636719 73.265625 17.445312 72.195312 15.570312 C 71.230469 13.878906 70.628906 10.800781 72.363281 9.414062 C 74.074219 8.050781 76.492188 8.996094 76.960938 11.050781 "/>
<path style=" stroke:none;fill-rule:nonzero;fill:rgb(9.019608%,15.686275%,18.431373%);fill-opacity:1;" d="M 72.84375 13.070312 L 72.066406 13.546875 L 72.140625 10.871094 C 72.140625 10.871094 71.324219 10.929688 70.730469 10.460938 C 71.011719 10.191406 75.398438 8.648438 76.765625 8.917969 C 76.90625 8.859375 77.082031 8.59375 77.082031 8.59375 C 77.082031 8.59375 77.136719 8.925781 76.902344 9.054688 C 77.070312 9.023438 77.488281 9.101562 77.605469 9.351562 C 77.238281 9.273438 77.023438 9.382812 77.023438 9.382812 C 77.023438 9.382812 78.558594 9.613281 78.007812 11.734375 C 77.402344 14.070312 77.601562 15.417969 77.601562 15.417969 C 77.601562 15.417969 76.46875 16.296875 75.484375 16.132812 C 74.433594 14.972656 72.917969 13.574219 72.84375 13.070312 "/>
<path style=" stroke:none;fill-rule:nonzero;fill:rgb(9.019608%,15.686275%,18.431373%);fill-opacity:1;" d="M 71.355469 10.25 C 70.117188 10.261719 69.671875 9.644531 69.355469 9.132812 C 70.242188 9.039062 72.09375 8.464844 73.46875 8.371094 C 74.84375 8.273438 76.347656 8.527344 75.890625 9.125 C 75.4375 9.71875 71.355469 10.25 71.355469 10.25 "/>
<path style=" stroke:none;fill-rule:nonzero;fill:rgb(9.019608%,15.686275%,18.431373%);fill-opacity:1;" d="M 71.625 9.695312 C 70.617188 9.554688 69.617188 8.59375 70.378906 7.671875 C 70.664062 8.351562 72.566406 8.269531 73.914062 7.988281 C 75.683594 7.617188 76.921875 8.214844 76.292969 9.429688 C 75.949219 10.097656 71.625 9.695312 71.625 9.695312 "/>
<path style=" stroke:none;fill-rule:nonzero;fill:rgb(97.647059%,65.882353%,70.196078%);fill-opacity:1;" d="M 73.945312 12.460938 C 74.105469 12.988281 74.046875 13.566406 73.875 13.992188 C 73.621094 14.632812 73.058594 14.5 72.765625 13.949219 C 72.503906 13.449219 72.316406 12.515625 72.75 12.050781 C 73.175781 11.597656 73.761719 11.855469 73.945312 12.460938 "/>
<path style=" stroke:none;fill-rule:nonzero;fill:rgb(9.019608%,15.686275%,18.431373%);fill-opacity:1;" d="M 77.105469 37.871094 C 77.105469 37.871094 78.921875 53.40625 80.242188 59.492188 C 81.6875 66.160156 88.8125 84.335938 88.8125 84.335938 L 92.375 83.101562 C 92.375 83.101562 87.808594 69.417969 86.59375 60.097656 C 85.664062 52.9375 84.335938 36.800781 84.335938 36.800781 L 77.105469 37.871094 "/>
<path style=" stroke:none;fill-rule:nonzero;fill:rgb(25.098039%,43.529412%,74.901961%);fill-opacity:1;" d="M 87.902344 83.195312 L 88.632812 84.722656 L 92.785156 83.367188 L 92.296875 82.125 L 87.902344 83.195312 "/>
<path style=" stroke:none;fill-rule:nonzero;fill:rgb(60.784314%,61.568627%,61.568627%);fill-opacity:1;" d="M 79.839844 57.441406 C 79.785156 57.15625 79.734375 56.855469 79.679688 56.550781 C 79.734375 56.855469 79.785156 57.15625 79.839844 57.441406 "/>
<path style=" stroke:none;fill-rule:nonzero;fill:rgb(64.313725%,65.098039%,64.705882%);fill-opacity:1;" d="M 80.042969 58.539062 C 79.976562 58.191406 79.910156 57.828125 79.839844 57.441406 C 79.910156 57.824219 79.976562 58.191406 80.042969 58.535156 C 80.042969 58.535156 80.042969 58.535156 80.042969 58.539062 "/>
<path style=" stroke:none;fill-rule:nonzero;fill:rgb(5.882353%,9.803922%,11.372549%);fill-opacity:1;" d="M 80.042969 58.535156 C 79.976562 58.191406 79.910156 57.824219 79.839844 57.441406 C 79.785156 57.15625 79.734375 56.855469 79.679688 56.550781 C 79.140625 53.402344 78.570312 49.359375 78.105469 45.84375 C 81.207031 47.214844 80.972656 53.523438 80.042969 58.535156 "/>
<path style=" stroke:none;fill-rule:nonzero;fill:rgb(9.019608%,15.686275%,18.431373%);fill-opacity:1;" d="M 73.128906 38.460938 C 73.128906 38.460938 71.621094 53.054688 71.851562 59.539062 C 72.089844 66.28125 75.226562 87.03125 75.226562 87.03125 L 78.816406 87.03125 C 78.816406 87.03125 78.15625 66.675781 78.316406 60.050781 C 78.488281 52.832031 81.1875 37.265625 81.1875 37.265625 L 73.128906 38.460938 "/>
<path style=" stroke:none;fill-rule:nonzero;fill:rgb(25.098039%,43.529412%,74.901961%);fill-opacity:1;" d="M 74.539062 85.597656 L 74.742188 87.09375 L 79.105469 87.09375 L 79.222656 85.757812 L 74.539062 85.597656 "/>
<path style=" stroke:none;fill-rule:nonzero;fill:rgb(97.647059%,65.882353%,70.196078%);fill-opacity:1;" d="M 72.433594 23.847656 C 72.035156 24.480469 71.636719 25.046875 71.21875 25.632812 C 70.804688 26.214844 70.367188 26.777344 69.921875 27.339844 C 69.023438 28.457031 68.0625 29.535156 66.984375 30.554688 C 66.699219 30.804688 66.4375 31.058594 66.132812 31.296875 L 65.910156 31.476562 L 65.796875 31.566406 C 65.753906 31.601562 65.738281 31.617188 65.652344 31.675781 C 65.371094 31.882812 65.09375 32.011719 64.835938 32.101562 C 64.3125 32.28125 63.859375 32.324219 63.429688 32.34375 C 63.003906 32.363281 62.605469 32.335938 62.21875 32.289062 C 60.679688 32.097656 59.320312 31.667969 57.96875 31.082031 L 58.40625 29.546875 C 59.722656 29.679688 61.097656 29.792969 62.320312 29.738281 C 62.625 29.71875 62.921875 29.6875 63.183594 29.644531 C 63.441406 29.597656 63.679688 29.523438 63.800781 29.449219 C 63.867188 29.414062 63.898438 29.382812 63.890625 29.375 C 63.875 29.386719 63.921875 29.34375 63.945312 29.320312 L 64.03125 29.238281 L 64.199219 29.078125 C 64.429688 28.875 64.648438 28.628906 64.871094 28.40625 C 65.308594 27.929688 65.746094 27.445312 66.160156 26.925781 C 66.582031 26.417969 66.992188 25.886719 67.398438 25.355469 C 67.804688 24.820312 68.195312 24.273438 68.59375 23.730469 C 68.984375 23.1875 69.375 22.617188 69.742188 22.089844 L 72.433594 23.847656 "/>
<path style=" stroke:none;fill-rule:nonzero;fill:rgb(25.098039%,43.529412%,74.901961%);fill-opacity:1;" d="M 73.90625 23.171875 C 74.761719 25.972656 69.808594 29.082031 69.808594 29.082031 L 66.589844 24.964844 C 66.589844 24.964844 67.480469 23.15625 69.253906 21.222656 C 71.445312 18.828125 73.257812 21.039062 73.90625 23.171875 "/>
<path style=" stroke:none;fill-rule:nonzero;fill:rgb(42.745098%,59.215686%,83.921569%);fill-opacity:1;" d="M 69.808594 29.082031 L 69.160156 28.253906 L 67.148438 25.679688 L 66.589844 24.964844 C 66.589844 24.964844 67.480469 23.15625 69.253906 21.222656 C 69.929688 20.484375 70.566406 20.183594 71.148438 20.183594 C 72.449219 20.183594 73.457031 21.695312 73.90625 23.171875 C 73.976562 23.394531 74.003906 23.617188 74.003906 23.84375 C 74.003906 24.65625 73.597656 25.46875 73.039062 26.203125 C 72.347656 27.113281 71.425781 27.902344 70.742188 28.421875 C 70.199219 28.835938 69.808594 29.082031 69.808594 29.082031 "/>
<path style=" stroke:none;fill-rule:nonzero;fill:rgb(97.647059%,65.882353%,70.196078%);fill-opacity:1;" d="M 59.144531 29.660156 L 56.539062 29.179688 L 56.816406 31.445312 C 56.816406 31.445312 58.167969 32.207031 59.152344 31.015625 L 59.144531 29.660156 "/>
<path style=" stroke:none;fill-rule:nonzero;fill:rgb(97.647059%,65.882353%,70.196078%);fill-opacity:1;" d="M 55.539062 29.691406 L 56.105469 31.324219 L 56.816406 31.445312 L 56.539062 29.179688 L 55.539062 29.691406 "/>
</g>
</svg>
